<?xml version="1.0" encoding="UTF-8"?>
<svg version="1.1" xmlns="http://www.w3.org/2000/svg" width="500" height="500">
<path d="M0 0 C165 0 330 0 500 0 C500 165 500 330 500 500 C335 500 170 500 0 500 C0 335 0 170 0 0 Z " fill="#FEFEFE" transform="translate(0,0)"/>
<path d="M0 0 C2.64 0 5.28 0 8 0 C8 1.65 8 3.3 8 5 C8.66 5 9.32 5 10 5 C10.33 5.99 10.66 6.98 11 8 C12.03447266 7.96519531 12.03447266 7.96519531 13.08984375 7.9296875 C18.45332094 7.82668519 23.20384326 8.08566741 28.390625 9.4296875 C33.1741074 10.47517916 38.07473128 10.89719236 42.9375 11.4375 C43.948125 11.623125 44.95875 11.80875 46 12 C46.495 12.99 46.495 12.99 47 14 C48.32 14 49.64 14 51 14 C51 15.65 51 17.3 51 19 C52.65 19.33 54.3 19.66 56 20 C55.505 22.475 55.505 22.475 55 25 C55.99 24.67 56.98 24.34 58 24 C58.0825 24.5775 58.165 25.155 58.25 25.75 C58.85585491 28.13134433 58.85585491 28.13134433 60.83984375 29.82421875 C63.09531503 32.09600447 64.6337496 34.34204291 66.3125 37.0625 C69.3857367 42.01160845 72.53033982 46.90691617 75.71484375 51.78515625 C77 54 77 54 77 56 C78.29035156 55.95230469 79.58070313 55.90460938 80.91015625 55.85546875 C88.05664135 55.85924796 95.06358198 56.92605495 102.1159668 57.97143555 C104.45504564 58.31507769 106.79646676 58.63742864 109.13867188 58.95898438 C110.63299893 59.17580234 112.12714727 59.39385634 113.62109375 59.61328125 C114.66637489 59.75410881 114.66637489 59.75410881 115.73277283 59.89778137 C118.48155836 60.32132355 120.60001474 60.70967467 122.87451172 62.3605957 C124.8514532 65.2402404 125.6994289 68.56152895 126.6875 71.875 C127.02491211 72.93654297 127.02491211 72.93654297 127.36914062 74.01953125 C128.54280084 77.85087189 129.04361803 80.96969417 129 85 C122.00753237 85.10167676 115.01525642 85.17158171 108.0222168 85.21972656 C105.64486568 85.23980363 103.2675637 85.26707113 100.89038086 85.30175781 C97.46716155 85.35044614 94.04459694 85.37300853 90.62109375 85.390625 C89.56353378 85.41127014 88.50597382 85.43191528 87.41636658 85.45318604 C80.96336124 85.45513465 77.33820134 84.63057701 72 81 C66.79714831 80.03990796 62.34759763 80.36295385 57.5625 82.625 C52.4115714 87.39903138 50.42692467 92.16605717 48.7109375 98.828125 C48 101 48 101 46 103 C45.58176027 104.87636126 45.58176027 104.87636126 45.453125 107.0234375 C45.34194336 108.2314502 45.34194336 108.2314502 45.22851562 109.46386719 C45.15310547 110.30079102 45.07769531 111.13771484 45 112 C44.63151417 115.21575755 44.19977374 118.41971588 43.75 121.625 C43.65332031 122.43195313 43.55664062 123.23890625 43.45703125 124.0703125 C42.5307659 130.4813176 40.42632735 135.28256796 35.1875 139.4375 C30.5012095 140.64254613 26.52110474 140.58255075 22.0625 138.875 C19.35778677 136.41616979 19.23815147 134.57227202 19 131 C21.875 130.875 21.875 130.875 25 131 C25.99 131.99 25.99 131.99 27 133 C29.5 133.33333333 29.5 133.33333333 32 133 C34.1385485 130.8614515 34.42655063 129.86724686 35 127 C34.319375 127.350625 33.63875 127.70125 32.9375 128.0625 C29.0613541 129.29956784 26.9010391 129.18424401 23 128 C21.41768805 126.26402521 20.23486005 124.51783429 19.04296875 122.49609375 C18.52669922 121.75552734 18.52669922 121.75552734 18 121 C17.34 121 16.68 121 16 121 C15.67 123.64 15.34 126.28 15 129 C12.69 129 10.38 129 8 129 C8.33 123.72 8.66 118.44 9 113 C7.35 113 5.7 113 4 113 C1.22420239 115.77579761 1.13938613 118.30306937 0.375 122.125 C-0.01558594 124.04699219 -0.01558594 124.04699219 -0.4140625 126.0078125 C-0.60742188 126.99523437 -0.80078125 127.98265625 -1 129 C-2.98 129 -4.96 129 -7 129 C-6.48351265 121.21191437 -5.55123466 113.65074958 -4 106 C-3.01 106 -2.02 106 -1 106 C-1 105.34 -1 104.68 -1 104 C-1.66 103.67 -2.32 103.34 -3 103 C-2.34 101.68 -1.68 100.36 -1 99 C1.31 99 3.62 99 6 99 C6 98.34 6 97.68 6 97 C4.02 97 2.04 97 0 97 C0 64.99 0 32.98 0 0 Z " fill="#E50304" transform="translate(157,165)"/>
<path d="M0 0 C26.73 0 53.46 0 81 0 C81 28.38 81 56.76 81 86 C76.97084738 85.19416948 74.92944787 84.60566015 71.5 82.75 C66.49052748 80.15554184 61.35327388 78.1773042 56.07421875 76.203125 C52.2344146 74.70038081 48.64195992 72.92809643 45 71 C45 70.67 45 70.34 45 70 C51.93 70 58.86 70 66 70 C66 69.34 66 68.68 66 68 C65.1529248 67.90017822 64.30584961 67.80035645 63.43310547 67.69750977 C59.58716899 66.91612443 56.59121307 65.56913562 53.0703125 63.83984375 C52.43511688 63.53051407 51.79992126 63.22118439 51.14547729 62.90248108 C49.13502102 61.92137458 47.13002345 60.92965421 45.125 59.9375 C43.75555605 59.26686762 42.38576751 58.59693841 41.015625 57.92773438 C37.67305905 56.29327029 34.33529955 54.64925075 31 53 C31 52.67 31 52.34 31 52 C41.56 51.67 52.12 51.34 63 51 C59.968125 50.01 56.93625 49.02 53.8125 48 C42.74029522 44.34541417 31.8577248 40.24433799 21 36 C21 35.67 21 35.34 21 35 C35.19 34.67 49.38 34.34 64 34 C60.865 33.154375 57.73 32.30875 54.5 31.4375 C38.92734579 27.20955514 23.45007459 22.65396661 8 18 C8 17.67 8 17.34 8 17 C33.245 16.505 33.245 16.505 59 16 C44.17586869 12.09891281 29.3655408 8.29477938 14.40478516 4.95458984 C9.50696887 3.85298875 4.72363439 2.73172827 0 1 C0 0.67 0 0.34 0 0 Z " fill="#E30404" transform="translate(72,175)"/>
<path d="M0 0 C2.31 0 4.62 0 7 0 C7 32.01 7 64.02 7 97 C16.9 97 26.8 97 37 97 C37 94.36 37 91.72 37 89 C39.25493963 81.20402783 44.359615 75.46810402 51 71 C58.57736084 67.08410841 66.19606479 65.48631937 74.53125 67.66015625 C81.89812841 70.28631198 88.3881561 74.54314778 93.125 80.8125 C93.41375 81.534375 93.7025 82.25625 94 83 C93.67 83.66 93.34 84.32 93 85 C79.15958041 85.69106117 79.15958041 85.69106117 75.3125 83 C70.58257614 80.14419692 66.39675357 80.20108482 61 81 C56.07642185 83.32750967 53.55922196 86.23455221 51 91 C50.14255204 93.59228454 49.39197041 96.18411489 48.7109375 98.828125 C48 101 48 101 46 103 C45.58176027 104.87636126 45.58176027 104.87636126 45.453125 107.0234375 C45.34194336 108.2314502 45.34194336 108.2314502 45.22851562 109.46386719 C45.15310547 110.30079102 45.07769531 111.13771484 45 112 C44.63151417 115.21575755 44.19977374 118.41971588 43.75 121.625 C43.65332031 122.43195313 43.55664062 123.23890625 43.45703125 124.0703125 C42.5307659 130.4813176 40.42632735 135.28256796 35.1875 139.4375 C30.5012095 140.64254613 26.52110474 140.58255075 22.0625 138.875 C19.35778677 136.41616979 19.23815147 134.57227202 19 131 C21.875 130.875 21.875 130.875 25 131 C25.99 131.99 25.99 131.99 27 133 C29.5 133.33333333 29.5 133.33333333 32 133 C34.1385485 130.8614515 34.42655063 129.86724686 35 127 C34.319375 127.350625 33.63875 127.70125 32.9375 128.0625 C29.0613541 129.29956784 26.9010391 129.18424401 23 128 C21.41768805 126.26402521 20.23486005 124.51783429 19.04296875 122.49609375 C18.52669922 121.75552734 18.52669922 121.75552734 18 121 C17.34 121 16.68 121 16 121 C15.67 123.64 15.34 126.28 15 129 C12.69 129 10.38 129 8 129 C8.33 123.72 8.66 118.44 9 113 C7.35 113 5.7 113 4 113 C1.22420239 115.77579761 1.13938613 118.30306937 0.375 122.125 C-0.01558594 124.04699219 -0.01558594 124.04699219 -0.4140625 126.0078125 C-0.60742188 126.99523437 -0.80078125 127.98265625 -1 129 C-2.98 129 -4.96 129 -7 129 C-6.48351265 121.21191437 -5.55123466 113.65074958 -4 106 C-3.01 106 -2.02 106 -1 106 C-1 105.34 -1 104.68 -1 104 C-1.66 103.67 -2.32 103.34 -3 103 C-2.34 101.68 -1.68 100.36 -1 99 C1.31 99 3.62 99 6 99 C6 98.34 6 97.68 6 97 C4.02 97 2.04 97 0 97 C0 64.99 0 32.98 0 0 Z " fill="#F7F8F7" transform="translate(157,165)"/>
<path d="M0 0 C7.26 0 14.52 0 22 0 C22 0.66 22 1.32 22 2 C21.34 2 20.68 2 20 2 C20 11.24 20 20.48 20 30 C32.21 30 44.42 30 57 30 C56.67 31.32 56.34 32.64 56 34 C56.99 34.33 57.98 34.66 59 35 C56.525 35.495 56.525 35.495 54 36 C54 36.66 54 37.32 54 38 C55.98 38 57.96 38 60 38 C60 37.34 60 36.68 60 36 C61.32 36 62.64 36 64 36 C63.67 36.99 63.34 37.98 63 39 C57.72 39 52.44 39 47 39 C47 39.99 47 40.98 47 42 C46.35933594 42.268125 45.71867187 42.53625 45.05859375 42.8125 C36.45201354 46.71175541 31.25510527 51.44699472 27.625 60.25 C26.55669624 63.16693373 25.7564501 65.97419958 25 69 C16.75 69 8.5 69 0 69 C0 46.23 0 23.46 0 0 Z " fill="#E40305" transform="translate(168,192)"/>
<path d="M0 0 C0.33 0 0.66 0 1 0 C1 1.65 1 3.3 1 5 C1.66 5 2.32 5 3 5 C3.33 5.99 3.66 6.98 4 8 C5.03447266 7.96519531 5.03447266 7.96519531 6.08984375 7.9296875 C11.45332094 7.82668519 16.20384326 8.08566741 21.390625 9.4296875 C26.1741074 10.47517916 31.07473128 10.89719236 35.9375 11.4375 C36.948125 11.623125 37.95875 11.80875 39 12 C39.495 12.99 39.495 12.99 40 14 C41.32 14 42.64 14 44 14 C44 15.65 44 17.3 44 19 C45.65 19.33 47.3 19.66 49 20 C48.505 22.475 48.505 22.475 48 25 C48.99 24.67 49.98 24.34 51 24 C51 24.99 51 25.98 51 27 C35.16 26.67 19.32 26.34 3 26 C3 49.43 3 72.86 3 97 C2.01 97 1.02 97 0 97 C0 64.99 0 32.98 0 0 Z " fill="#FEEEEF" transform="translate(164,165)"/>
<path d="M0 0 C4.43596726 0.14792556 7.53339924 0.45999118 11.02905273 3.33081055 C16.4627988 9.77508883 21.59724931 17.96009362 22.73168945 26.4440918 C21.73168945 27.4440918 21.73168945 27.4440918 18.40527344 27.55761719 C16.92943389 27.55745809 15.45358877 27.55176494 13.9777832 27.54174805 C13.20233658 27.5403331 12.42688995 27.53891815 11.62794495 27.53746033 C9.14165451 27.53184525 6.65545285 27.51929026 4.16918945 27.5065918 C2.48755013 27.50157874 0.80590939 27.49701549 -0.87573242 27.49291992 C-5.00662621 27.48187093 -9.13745331 27.46459624 -13.26831055 27.4440918 C-14.53968829 24.90133631 -14.39773554 23.09600979 -14.40112305 20.25268555 C-14.40241211 19.22594727 -14.40370117 18.19920898 -14.4050293 17.14135742 C-14.40116211 16.06563477 -14.39729492 14.98991211 -14.39331055 13.8815918 C-14.39717773 12.80200195 -14.40104492 11.72241211 -14.4050293 10.61010742 C-14.40374023 9.5846582 -14.40245117 8.55920898 -14.40112305 7.50268555 C-14.39999512 6.55707764 -14.39886719 5.61146973 -14.39770508 4.63720703 C-14.05937411 -1.09718372 -4.39232703 0.19149594 0 0 Z " fill="#FBFDFD" transform="translate(203.268310546875,193.555908203125)"/>
<path d="M0 0 C7.486875 -0.061875 14.97375 -0.12375 22.6875 -0.1875 C25.04350342 -0.21481201 27.39950684 -0.24212402 29.8269043 -0.27026367 C31.7010039 -0.27902816 33.57510923 -0.28667219 35.44921875 -0.29296875 C36.90068298 -0.3159906 36.90068298 -0.3159906 38.38146973 -0.33947754 C46.98146289 -0.34281821 46.98146289 -0.34281821 51 3 C52.703125 5.20703125 52.703125 5.20703125 54.25 7.8125 C56.27684338 11.15925242 58.30380244 14.4937192 60.44921875 17.765625 C60.86204102 18.39621826 61.27486328 19.02681152 61.70019531 19.67651367 C62.51623978 20.92038572 63.33455148 22.1627737 64.15527344 23.40356445 C67 27.77773387 67 27.77773387 67 30 C67.8979126 29.97389648 67.8979126 29.97389648 68.81396484 29.94726562 C75.23242267 29.84288025 81.29903512 30.45973022 87.625 31.5 C88.53378906 31.64308594 89.44257813 31.78617188 90.37890625 31.93359375 C92.58711883 32.28225889 94.79397643 32.63778827 97 33 C97 33.33 97 33.66 97 34 C88.94641862 34.14525497 81.02124152 33.71413279 73 33 C73 33.66 73 34.32 73 35 C72.34 35 71.68 35 71 35 C71.165 35.94875 71.33 36.8975 71.5 37.875 C72 41 72 41 72 43 C73.98 43.495 73.98 43.495 76 44 C75.67 44.99 75.34 45.98 75 47 C74.22398437 46.6390625 73.44796875 46.278125 72.6484375 45.90625 C64.16940285 42.26370528 57.17861942 41.38075281 48 42 C48 41.34 48 40.68 48 40 C49.14339844 39.95101562 50.28679687 39.90203125 51.46484375 39.8515625 C52.95575473 39.77654811 54.44663892 39.70099972 55.9375 39.625 C56.69224609 39.5940625 57.44699219 39.563125 58.22460938 39.53125 C60.15507395 39.4273685 62.07942081 39.22104386 64 39 C64.495 38.01 64.495 38.01 65 37 C63.68 37 62.36 37 61 37 C61 37.66 61 38.32 61 39 C59.02 39 57.04 39 55 39 C55 38.34 55 37.68 55 37 C56.98 36.505 56.98 36.505 59 36 C58.01 35.505 58.01 35.505 57 35 C57 34.34 57 33.68 57 33 C55.02 33 53.04 33 51 33 C51 32.67 51 32.34 51 32 C36.15 31.505 36.15 31.505 21 31 C21 21.76 21 12.52 21 3 C21.66 3 22.32 3 23 3 C23 2.34 23 1.68 23 1 C15.74 1 8.48 1 1 1 C1 23.77 1 46.54 1 70 C9.25 70 17.5 70 26 70 C26.33 68.68 26.66 67.36 27 66 C27 67.65 27 69.3 27 71 C18.09 71 9.18 71 0 71 C0 47.57 0 24.14 0 0 Z M22 5 C21.90065224 6.68385075 21.8691995 8.37181597 21.8671875 10.05859375 C21.86589844 11.08404297 21.86460937 12.10949219 21.86328125 13.16601562 C21.86714844 14.24560547 21.87101562 15.32519531 21.875 16.4375 C21.86919922 18.05108398 21.86919922 18.05108398 21.86328125 19.69726562 C21.86457031 20.72400391 21.86585938 21.75074219 21.8671875 22.80859375 C21.86831543 23.75532959 21.86944336 24.70206543 21.87060547 25.67749023 C21.84735284 28.02534473 21.84735284 28.02534473 23 30 C34.55 30 46.1 30 58 30 C59.35303574 26.27691666 59.35303574 26.27691666 58.15136719 23.95703125 C57.48089355 22.89548828 57.48089355 22.89548828 56.796875 21.8125 C56.31089844 21.03132813 55.82492188 20.25015625 55.32421875 19.4453125 C54.80472656 18.63835937 54.28523438 17.83140625 53.75 17 C53.24597656 16.19304687 52.74195313 15.38609375 52.22265625 14.5546875 C50.8380942 12.3524707 49.44604533 10.16234941 48 8 C47.55317871 7.26241455 47.10635742 6.5248291 46.64599609 5.76489258 C45.12259255 3.7876505 45.12259255 3.7876505 42.65576172 3.5300293 C41.75615723 3.54461182 40.85655273 3.55919434 39.9296875 3.57421875 C38.95128906 3.58259766 37.97289062 3.59097656 36.96484375 3.59960938 C35.43537109 3.64311523 35.43537109 3.64311523 33.875 3.6875 C32.33392578 3.70200195 32.33392578 3.70200195 30.76171875 3.71679688 C26.03416941 3.35917279 26.03416941 3.35917279 22 5 Z " fill="#DE0A0C" transform="translate(167,191)"/>
<path d="M0 0 C2.31 0 4.62 0 7 0 C7 32.01 7 64.02 7 97 C4.69 97 2.38 97 0 97 C0 64.99 0 32.98 0 0 Z " fill="#E70103" transform="translate(157,165)"/>
<path d="M0 0 C0.99 0.66 1.98 1.32 3 2 C3.33 1.34 3.66 0.68 4 0 C6.31 0 8.62 0 11 0 C10.87882812 0.71542969 10.75765625 1.43085938 10.6328125 2.16796875 C10.46523437 3.16441406 10.29765625 4.16085937 10.125 5.1875 C9.93808594 6.27804687 9.75117188 7.36859375 9.55859375 8.4921875 C9.19064355 10.8028118 8.86904663 13.12136773 8.59765625 15.4453125 C7.65805519 23.15898978 6.51879486 28.41612821 0.1875 33.4375 C-4.4987905 34.64254613 -8.47889526 34.58255075 -12.9375 32.875 C-15.64221323 30.41616979 -15.76184853 28.57227202 -16 25 C-13.125 24.875 -13.125 24.875 -10 25 C-9.34 25.66 -8.68 26.32 -8 27 C-5.5 27.33333333 -5.5 27.33333333 -3 27 C-0.8614515 24.8614515 -0.57344937 23.86724686 0 21 C-0.680625 21.350625 -1.36125 21.70125 -2.0625 22.0625 C-5.8180978 23.26109504 -8.20103588 22.98491662 -12 22 C-14.7236771 19.71562566 -14.96283614 18.27607436 -15.4375 14.75 C-14.77863211 9.10256091 -13.02650693 4.70653215 -8.625 1 C-5.5171663 -0.18393665 -3.30080743 -0.35878342 0 0 Z " fill="#0E0E0E" transform="translate(192,271)"/>
<path d="M0 0 C1.05344604 0.00362549 1.05344604 0.00362549 2.12817383 0.00732422 C9.56461305 0.26867146 14.65200741 3.07105388 19.96484375 8.2265625 C23.25 11.92122576 23.25 11.92122576 23.25 14.5625 C12.62628074 15.25409836 12.62628074 15.25409836 8.75 12.5625 C4.27736246 9.54481684 -0.55441227 9.79336466 -5.75 10.5625 C-11.78468737 13.4152613 -14.71589099 17.77040566 -17 23.9375 C-17.2475 24.80375 -17.495 25.67 -17.75 26.5625 C-20.39 26.5625 -23.03 26.5625 -25.75 26.5625 C-26.47455919 19.89655545 -24.401245 15.12193334 -20.75 9.5625 C-15.08161341 3.26136328 -8.54441666 -0.03067279 0 0 Z " fill="#E80404" transform="translate(223.75,235.4375)"/>
<path d="M0 0 C2.97 0 5.94 0 9 0 C9 0.33 9 0.66 9 1 C6.69 1 4.38 1 2 1 C2 33.01 2 65.02 2 98 C3.98 98 5.96 98 8 98 C8 98.66 8 99.32 8 100 C5.69 100 3.38 100 1 100 C1 99.34 1 98.68 1 98 C-0.98 97.505 -0.98 97.505 -3 97 C-2.67 68.62 -2.34 40.24 -2 11 C-43.58 11.495 -43.58 11.495 -86 12 C-86 11.34 -86 10.68 -86 10 C-57.95 10 -29.9 10 -1 10 C-1 7.36 -1 4.72 -1 2 C-0.67 1.34 -0.34 0.68 0 0 Z " fill="#FED0CB" transform="translate(155,164)"/>
<path d="M0 0 C0.99 0.66 1.98 1.32 3 2 C3.33 1.34 3.66 0.68 4 0 C6.31 0 8.62 0 11 0 C10.52651786 3.45913666 10.04525236 6.91714589 9.5625 10.375 C9.42779297 11.35984375 9.29308594 12.3446875 9.15429688 13.359375 C9.02216797 14.30039062 8.89003906 15.24140625 8.75390625 16.2109375 C8.63345947 17.08024902 8.5130127 17.94956055 8.38891602 18.84521484 C8 21 8 21 7 23 C5.02 23 3.04 23 1 23 C0.67 22.34 0.34 21.68 0 21 C-0.53625 21.33 -1.0725 21.66 -1.625 22 C-4.67193922 23.28292178 -6.72032701 23.40995912 -10 23 C-12.375 21.625 -12.375 21.625 -14 19 C-14.84617763 13.95747209 -14.57868138 10.13669557 -12.25 5.5625 C-8.29394687 1.05699504 -6.19159989 -0.65868084 0 0 Z " fill="#0A0A0A" transform="translate(258,271)"/>
<path d="M0 0 C15.48701764 -0.4839693 31.61467776 0.51152891 44 11 C44 11.66 44 12.32 44 13 C29.48 13 14.96 13 0 13 C0 8.71 0 4.42 0 0 Z " fill="#E50305" transform="translate(167,175)"/>
<path d="M0 0 C2.1875 1.6875 2.1875 1.6875 4.1875 4.6875 C4.65683661 8.83330669 4.4690984 11.13513391 2.5625 14.875 C-0.13571097 18.07024983 -1.9982061 19.9216232 -5.8125 21.6875 C-10.73265621 22.07675286 -14.50976395 21.71107833 -18.4375 18.625 C-20.1916445 14.87750947 -20.58520695 11.70873003 -19.8125 7.6875 C-15.91049789 -0.26658122 -8.37647562 -3.90902195 0 0 Z " fill="#0E0E0E" transform="translate(143.8125,272.3125)"/>
<path d="M0 0 C1.98 0 3.96 0 6 0 C6 3.63 6 7.26 6 11 C6.6290625 10.2059375 7.258125 9.411875 7.90625 8.59375 C14.67998237 0.39431836 14.67998237 0.39431836 18.4453125 -0.73046875 C20.625 -0.6875 20.625 -0.6875 24 0 C20 4.66666667 16 9.33333333 12 14 C12.63228516 15.12148438 12.63228516 15.12148438 13.27734375 16.265625 C13.82519531 17.25046875 14.37304688 18.2353125 14.9375 19.25 C15.48277344 20.22453125 16.02804688 21.1990625 16.58984375 22.203125 C17.76610835 24.53610409 18.52101691 26.45350762 19 29 C16.36 29 13.72 29 11 29 C9.02 25.37 7.04 21.74 5 18 C4.67 18 4.34 18 4 18 C3.34 21.63 2.68 25.26 2 29 C-0.31 29 -2.62 29 -5 29 C-4.34214845 24.33205339 -3.67504119 19.66548908 -3 15 C-2.82082031 13.76121094 -2.64164062 12.52242188 -2.45703125 11.24609375 C-2.28558594 10.09238281 -2.11414063 8.93867188 -1.9375 7.75 C-1.78152344 6.69296875 -1.62554687 5.6359375 -1.46484375 4.546875 C-1 2 -1 2 0 0 Z " fill="#0C0C0C" transform="translate(73,265)"/>
<path d="M0 0 C2.31 0 4.62 0 7 0 C6.67 2.97 6.34 5.94 6 9 C7.32 8.34 8.64 7.68 10 7 C13.37956177 7.17787167 15.98706534 7.41184439 18.9375 9.125 C22.43213418 15.2920015 18.72829087 23.73494558 17 30 C15.02 30 13.04 30 11 30 C11.33 24.39 11.66 18.78 12 13 C10.02 13.33 8.04 13.66 6 14 C4.68 19.28 3.36 24.56 2 30 C-0.31 30 -2.62 30 -5 30 C-3.66193488 19.92515677 -1.94274694 9.97276765 0 0 Z " fill="#0D0D0D" transform="translate(101,264)"/>
<path d="M0 0 C2.31 0 4.62 0 7 0 C7.99 6.93 8.98 13.86 10 21 C13.3 14.07 16.6 7.14 20 0 C22.31 0 24.62 0 27 0 C25.72287446 4.10693899 24.18709006 7.81593585 22.1796875 11.6171875 C21.64472656 12.63554687 21.10976562 13.65390625 20.55859375 14.703125 C20.00300781 15.74984375 19.44742188 16.7965625 18.875 17.875 C18.31167969 18.94492187 17.74835938 20.01484375 17.16796875 21.1171875 C15.78265261 23.74694017 14.39322404 26.37443083 13 29 C10.03 29 7.06 29 4 29 C3.32488531 25.2931535 2.66141959 21.58431256 2 17.875 C1.80921875 16.82828125 1.6184375 15.7815625 1.421875 14.703125 C1.24140625 13.68476563 1.0609375 12.66640625 0.875 11.6171875 C0.70742187 10.68503418 0.53984375 9.75288086 0.3671875 8.79248047 C-0.0221472 5.8315694 -0.06158415 2.98298238 0 0 Z " fill="#0C0C0C" transform="translate(217,265)"/>
<path d="M0 0 C2.31 0 4.62 0 7 0 C7.33 0.66 7.66 1.32 8 2 C8.66 1.34 9.32 0.68 10 0 C17.09859155 -0.67605634 17.09859155 -0.67605634 20 1.5 C22.73598475 8.33996188 20.42949607 16.05673338 19 23 C16.69 23 14.38 23 12 23 C12.33 17.72 12.66 12.44 13 7 C11.35 7 9.7 7 8 7 C5.76108858 12.45126259 4.52393706 17.13190493 4 23 C1.69 23 -0.62 23 -3 23 C-2.48351265 15.21191437 -1.55123466 7.65074958 0 0 Z " fill="#0D0D0D" transform="translate(274,271)"/>
<path d="M0 0 C2.31 0 4.62 0 7 0 C7 0.66 7 1.32 7 2 C7.99 1.34 8.98 0.68 10 0 C13.90991408 -0.33275864 16.69418121 -0.20387919 20 2 C21.43036196 4.86072391 20.89282295 7.07955534 20.625 10.25 C20.53476563 11.36890625 20.44453125 12.4878125 20.3515625 13.640625 C20.02182288 16.79147025 19.55741891 19.88223323 19 23 C16.69 23 14.38 23 12 23 C12.33 17.72 12.66 12.44 13 7 C11.35 7 9.7 7 8 7 C5.22420239 9.77579761 5.13938613 12.30306937 4.375 16.125 C4.11460937 17.40632813 3.85421875 18.68765625 3.5859375 20.0078125 C3.29589844 21.48894531 3.29589844 21.48894531 3 23 C1.02 23 -0.96 23 -3 23 C-2.48351265 15.21191437 -1.55123466 7.65074958 0 0 Z " fill="#0B0A0A" transform="translate(153,271)"/>
<path d="M0 0 C2.31 0 4.62 0 7 0 C7 32.01 7 64.02 7 97 C4.69 97 2.38 97 0 97 C0 64.99 0 32.98 0 0 Z M2 2 C0.95785309 6.61507774 0.95785309 6.61507774 2 11 C2.09305156 13.62431149 2.12579615 16.22184796 2.11352539 18.84619141 C2.11367142 19.65602982 2.11381744 20.46586823 2.1139679 21.30024719 C2.11326977 23.98404596 2.10548204 26.66777581 2.09765625 29.3515625 C2.09579171 31.20958417 2.09436798 33.06760633 2.09336853 34.92562866 C2.08954615 39.82142488 2.07971823 44.71719155 2.06866455 49.61297607 C2.05844444 54.60656331 2.05386962 59.60015532 2.04882812 64.59375 C2.03809573 74.39584634 2.02102264 84.19792071 2 94 C3.32 94.33 4.64 94.66 6 95 C6.02313347 83.169619 6.04092023 71.33924335 6.05181217 59.50884438 C6.05703879 54.01597929 6.06413246 48.52312964 6.07543945 43.03027344 C6.08627614 37.73295311 6.09227851 32.43564766 6.09487724 27.13831711 C6.09673007 25.11363872 6.10034799 23.08896118 6.10573006 21.06428909 C6.11295083 18.23636339 6.1139905 15.40849979 6.11352539 12.58056641 C6.11712067 11.73683975 6.12071594 10.8931131 6.12442017 10.02381897 C6.22640046 5.87932028 6.22640046 5.87932028 5 2 C4.01 2 3.02 2 2 2 Z " fill="#C72524" transform="translate(157,165)"/>
<path d="M0 0 C1.91541138 -0.10841951 3.83259773 -0.18578079 5.75 -0.25 C7.35101563 -0.31960938 7.35101563 -0.31960938 8.984375 -0.390625 C12 0 12 0 14.39453125 1.765625 C16 4 16 4 16.27734375 6 C15.00341297 13.49715586 15.00341297 13.49715586 12 16 C8.5 16.875 8.5 16.875 5 17 C4.01 16.34 3.02 15.68 2 15 C1.67 18.3 1.34 21.6 1 25 C-0.65 25 -2.3 25 -4 25 C-3.42029353 16.50430168 -1.76198299 8.31124051 0 0 Z " fill="#101010" transform="translate(200,315)"/>
<path d="M0 0 C4.43596726 0.14792556 7.53339924 0.45999118 11.02905273 3.33081055 C16.4627988 9.77508883 21.59724931 17.96009362 22.73168945 26.4440918 C21.73168945 27.4440918 21.73168945 27.4440918 18.40527344 27.55761719 C16.92943389 27.55745809 15.45358877 27.55176494 13.9777832 27.54174805 C13.20233658 27.5403331 12.42688995 27.53891815 11.62794495 27.53746033 C9.14165451 27.53184525 6.65545285 27.51929026 4.16918945 27.5065918 C2.48755013 27.50157874 0.80590939 27.49701549 -0.87573242 27.49291992 C-5.00662621 27.48187093 -9.13745331 27.46459624 -13.26831055 27.4440918 C-14.53968829 24.90133631 -14.39773554 23.09600979 -14.40112305 20.25268555 C-14.40241211 19.22594727 -14.40370117 18.19920898 -14.4050293 17.14135742 C-14.40116211 16.06563477 -14.39729492 14.98991211 -14.39331055 13.8815918 C-14.39717773 12.80200195 -14.40104492 11.72241211 -14.4050293 10.61010742 C-14.40374023 9.5846582 -14.40245117 8.55920898 -14.40112305 7.50268555 C-14.39999512 6.55707764 -14.39886719 5.61146973 -14.39770508 4.63720703 C-14.05937411 -1.09718372 -4.39232703 0.19149594 0 0 Z M3.73168945 3.4440918 C3.73168945 4.1040918 3.73168945 4.7640918 3.73168945 5.4440918 C2.66047852 5.43249023 1.58926758 5.42088867 0.4855957 5.40893555 C-0.91153798 5.39955881 -2.30867354 5.39045849 -3.70581055 5.3815918 C-4.41286133 5.37321289 -5.11991211 5.36483398 -5.84838867 5.35620117 C-7.65524614 5.34755592 -9.46218657 5.39189168 -11.26831055 5.4440918 C-13.15383584 7.32961709 -12.40077744 10.02178011 -12.4050293 12.52612305 C-12.40116211 13.32405273 -12.39729492 14.12198242 -12.39331055 14.9440918 C-12.39717773 15.74202148 -12.40104492 16.53995117 -12.4050293 17.36206055 C-12.77730664 21.21248499 -12.77730664 21.21248499 -11.26831055 24.4440918 C-8.89262535 24.5324885 -6.54622381 24.55939485 -4.1706543 24.54174805 C-3.46179581 24.5403331 -2.75293732 24.53891815 -2.02259827 24.53746033 C0.24970658 24.53184622 2.52191421 24.51929143 4.79418945 24.5065918 C6.33129741 24.50157861 7.8684069 24.49701539 9.40551758 24.49291992 C13.18094587 24.48187222 16.95630116 24.46459821 20.73168945 24.4440918 C20.73168945 23.7840918 20.73168945 23.1240918 20.73168945 22.4440918 C19.74168945 22.1140918 18.75168945 21.7840918 17.73168945 21.4440918 C15.37110597 18.17559159 14.37203599 15.39289545 13.73168945 11.4440918 C13.40168945 10.7840918 13.07168945 10.1240918 12.73168945 9.4440918 C11.74168945 9.1140918 10.75168945 8.7840918 9.73168945 8.4440918 C9.40168945 6.7940918 9.07168945 5.1440918 8.73168945 3.4440918 C7.08168945 3.4440918 5.43168945 3.4440918 3.73168945 3.4440918 Z " fill="#FDF7F1" transform="translate(203.268310546875,193.555908203125)"/>
<path d="M0 0 C4.84191164 3.16298253 9.78187956 6.45469889 12 12 C11.67 12.66 11.34 13.32 11 14 C10.01 14 9.02 14 8 14 C6.7109375 12.42578125 6.7109375 12.42578125 5.375 10.3125 C1.92271328 5.59493344 -1.33860502 2.70939627 -7 1 C-15.1700352 -0.01916594 -23.16063007 -0.28369656 -30.23828125 4.515625 C-37.08795492 10.28696867 -40.09242239 17.10573944 -41 26 C-42.32 26 -43.64 26 -45 26 C-45.66208916 18.84943706 -44.03140337 13.94797219 -40 8 C-29.47712737 -4.27317008 -14.26155348 -7.74198617 0 0 Z " fill="#FDDDD6" transform="translate(239,236)"/>
<path d="M0 0 C26.73 0 53.46 0 81 0 C81 28.38 81 56.76 81 86 C76 85 76 85 74 83 C75.98 83 77.96 83 80 83 C80 56.27 80 29.54 80 2 C58.88 2 37.76 2 16 2 C16 2.66 16 3.32 16 4 C17.15628906 3.87431641 17.15628906 3.87431641 18.3359375 3.74609375 C19.84027344 3.59333984 19.84027344 3.59333984 21.375 3.4375 C22.87160156 3.28087891 22.87160156 3.28087891 24.3984375 3.12109375 C27 3 27 3 29 4 C29 4.66 29 5.32 29 6 C29.99 6 30.98 6 32 6 C32 6.66 32 7.32 32 8 C27.16256494 8.21783481 22.89371285 7.42182023 18.25 6.1875 C17.55132812 6.00735352 16.85265625 5.82720703 16.1328125 5.64160156 C10.71461628 4.22957164 5.33731561 2.6935713 0 1 C0 0.67 0 0.34 0 0 Z " fill="#B41822" transform="translate(72,175)"/>
<path d="M0 0 C1.0725 0.268125 2.145 0.53625 3.25 0.8125 C3.58 0.4825 3.91 0.1525 4.25 -0.1875 C5.91617115 -0.22813832 7.58388095 -0.230221 9.25 -0.1875 C8.94188262 2.27145618 8.62871012 4.72958307 8.3125 7.1875 C8.22548828 7.88617188 8.13847656 8.58484375 8.04882812 9.3046875 C7.36328125 14.5859375 7.36328125 14.5859375 6.25 16.8125 C4.31318839 16.89357583 2.3754066 16.95172475 0.4375 17 C-0.64144531 17.03480469 -1.72039062 17.06960938 -2.83203125 17.10546875 C-5.75 16.8125 -5.75 16.8125 -7.60546875 15.5390625 C-9.6251451 12.49231524 -9.43043061 9.26001508 -8.75 5.8125 C-6.76678556 1.54638538 -4.89975822 -0.24498791 0 0 Z " fill="#1B1B1B" transform="translate(150.75,315.1875)"/>
<path d="M0 0 C7.486875 -0.061875 14.97375 -0.12375 22.6875 -0.1875 C25.04350342 -0.21481201 27.39950684 -0.24212402 29.8269043 -0.27026367 C31.7010039 -0.27902816 33.57510923 -0.28667219 35.44921875 -0.29296875 C36.90068298 -0.3159906 36.90068298 -0.3159906 38.38146973 -0.33947754 C47.02883718 -0.34283661 47.02883718 -0.34283661 51 3 C52.3125 5.1875 52.3125 5.1875 53 7 C52.01 6.67 51.02 6.34 50 6 C49.67 7.32 49.34 8.64 49 10 C48.59265625 9.18144531 48.1853125 8.36289063 47.765625 7.51953125 C43.32957756 3.47821684 38.51769427 4.47004053 32.75 4.6875 C31.62335938 4.71005859 30.49671875 4.73261719 29.3359375 4.75585938 C26.55594768 4.81475746 23.77864668 4.89695799 21 5 C21 4.34 21 3.68 21 3 C21.66 3 22.32 3 23 3 C23 2.34 23 1.68 23 1 C15.74 1 8.48 1 1 1 C1 23.77 1 46.54 1 70 C9.25 70 17.5 70 26 70 C26.33 68.68 26.66 67.36 27 66 C27 67.65 27 69.3 27 71 C18.09 71 9.18 71 0 71 C0 47.57 0 24.14 0 0 Z " fill="#C82F37" transform="translate(167,191)"/>
<path d="M0 0 C14.85 0 29.7 0 45 0 C45 0.33 45 0.66 45 1 C36.42 1 27.84 1 19 1 C19 1.66 19 2.32 19 3 C22.63 3 26.26 3 30 3 C30 3.33 30 3.66 30 4 C28.02 4.33 26.04 4.66 24 5 C26.38162009 6.41385911 26.38162009 6.41385911 29 7 C29.33 6.34 29.66 5.68 30 5 C35.64409459 3.11863514 42.26944418 3.47185178 48 5 C48 5.33 48 5.66 48 6 C47.21753906 6.18175781 46.43507812 6.36351562 45.62890625 6.55078125 C44.61699219 6.80214844 43.60507813 7.05351562 42.5625 7.3125 C41.55316406 7.55613281 40.54382813 7.79976562 39.50390625 8.05078125 C38.67761719 8.36402344 37.85132813 8.67726562 37 9 C36.67 9.99 36.34 10.98 36 12 C38.64 12.66 41.28 13.32 44 14 C44 14.66 44 15.32 44 16 C35.34683621 13.82281687 27.0087611 10.97849465 18.625 7.9375 C17.36862064 7.4859633 16.11211076 7.0347896 14.85546875 6.58398438 C9.87387964 4.79029056 4.90577471 2.99329014 0 1 C0 0.67 0 0.34 0 0 Z " fill="#DA0C0B" transform="translate(93,210)"/>
<path d="M0 0 C0.71542969 -0.00128906 1.43085938 -0.00257813 2.16796875 -0.00390625 C7.67324118 0.10700583 10.92740843 0.96692675 15.1875 4.375 C15.1875 5.365 15.1875 6.355 15.1875 7.375 C14.5275 7.375 13.8675 7.375 13.1875 7.375 C13.1875 8.035 13.1875 8.695 13.1875 9.375 C12.22263672 9.23191406 12.22263672 9.23191406 11.23828125 9.0859375 C4.56344316 8.26705579 -1.26130547 8.67692829 -7.8671875 9.90234375 C-10.58042784 10.33775765 -13.07185976 10.46096104 -15.8125 10.375 C-15.4825 8.725 -15.1525 7.075 -14.8125 5.375 C-13.8225 5.375 -12.8325 5.375 -11.8125 5.375 C-11.8125 4.385 -11.8125 3.395 -11.8125 2.375 C-8.07779581 -0.03759961 -4.30687245 -0.00791704 0 0 Z " fill="#DF050A" transform="translate(223.8125,235.625)"/>
<path d="M0 0 C3.3 0.33 6.6 0.66 10 1 C10 1.99 10 2.98 10 4 C9.23333008 4.02505615 8.46666016 4.0501123 7.67675781 4.07592773 C4.20100717 4.19201423 0.72551908 4.31468366 -2.75 4.4375 C-3.9565625 4.47681641 -5.163125 4.51613281 -6.40625 4.55664062 C-7.56640625 4.59853516 -8.7265625 4.64042969 -9.921875 4.68359375 C-10.99018555 4.72025146 -12.05849609 4.75690918 -13.15917969 4.79467773 C-15.58311152 4.96986909 -17.67886712 5.31198487 -20 6 C-20 6.66 -20 7.32 -20 8 C-17.69 8 -15.38 8 -13 8 C-13.33 8.99 -13.66 9.98 -14 11 C-18.56319302 12.02224053 -21.7061898 11.86633864 -26.203125 10.63671875 C-27.3478125 10.32669922 -28.4925 10.01667969 -29.671875 9.69726562 C-30.85265625 9.36404297 -32.0334375 9.03082031 -33.25 8.6875 C-34.44625 8.36587891 -35.6425 8.04425781 -36.875 7.71289062 C-45.72481216 5.27518784 -45.72481216 5.27518784 -48 3 C-22.755 2.505 -22.755 2.505 3 2 C2.01 1.34 1.02 0.68 0 0 Z " fill="#DA2325" transform="translate(128,189)"/>
<path d="M0 0 C2.20826378 -0.02722517 4.41662638 -0.04649729 6.625 -0.0625 C7.85476562 -0.07410156 9.08453125 -0.08570313 10.3515625 -0.09765625 C13.67723791 -0.00863924 16.74047588 0.36313913 20 1 C20 1.33 20 1.66 20 2 C14.06 2 8.12 2 2 2 C2 4.97 2 7.94 2 11 C6.58357376 10.86117146 11.16678696 10.71273252 15.75 10.5625 C17.70292969 10.50352539 17.70292969 10.50352539 19.6953125 10.44335938 C20.94570312 10.40146484 22.19609375 10.35957031 23.484375 10.31640625 C24.63647461 10.27974854 25.78857422 10.24309082 26.97558594 10.20532227 C29.47740224 10.03547826 31.61091168 9.72031525 34 9 C34 8.01 34 7.02 34 6 C29.71 5.01 25.42 4.02 21 3 C21 2.67 21 2.34 21 2 C29.77232562 2.42446737 37.25381971 5.22638117 44 11 C44 11.66 44 12.32 44 13 C29.48 13 14.96 13 0 13 C0 8.71 0 4.42 0 0 Z " fill="#D22525" transform="translate(167,175)"/>
<path d="M0 0 C0.33 0 0.66 0 1 0 C1.33 8.25 1.66 16.5 2 25 C19.325 24.505 19.325 24.505 37 24 C35.80964585 18.04822926 33.27607055 14.92701238 29.71484375 10.1328125 C27.71152561 6.47299212 27.67551801 4.11010517 28 0 C33.49466845 3.08472615 36.09173432 6.61925106 39.25 12 C39.683125 12.7115625 40.11625 13.423125 40.5625 14.15625 C42.51230071 17.38184624 44.34229306 20.61340775 46 24 C45.01 24 44.02 24 43 24 C42.34 22.35 41.68 20.7 41 19 C40.67 19 40.34 19 40 19 C39.34 21.31 38.68 23.62 38 26 C25.46 26 12.92 26 0 26 C0 17.42 0 8.84 0 0 Z " fill="#B81419" transform="translate(188,196)"/>
<path d="M0 0 C1.93681161 -0.08107583 3.8745934 -0.13922475 5.8125 -0.1875 C6.89144531 -0.22230469 7.97039062 -0.25710938 9.08203125 -0.29296875 C12 0 12 0 13.90625 1.0625 C15.6366243 4.12773447 15.03503364 6.74375755 14.6875 10.1875 C14.56761719 11.45980469 14.44773438 12.73210937 14.32421875 14.04296875 C14.21722656 15.01878906 14.11023438 15.99460937 14 17 C12.35 17 10.7 17 9 17 C9 13.04 9 9.08 9 5 C7.68 5 6.36 5 5 5 C4.01 8.96 3.02 12.92 2 17 C0.35 17 -1.3 17 -3 17 C-2.69095829 14.72869344 -2.37765093 12.45796695 -2.0625 10.1875 C-1.88847656 8.92292969 -1.71445313 7.65835937 -1.53515625 6.35546875 C-1 3 -1 3 0 0 Z " fill="#121212" transform="translate(164,315)"/>
<path d="M0 0 C0.495 1.485 0.495 1.485 1 3 C0.67 3.66 0.34 4.32 0 5 C-28.05 5 -56.1 5 -85 5 C-85.33 5.66 -85.66 6.32 -86 7 C-86 6.01 -86 5.02 -86 4 C-82.1312257 2.7505662 -78.25427089 2.84079828 -74.23388672 2.82641602 C-73.45622955 2.819729 -72.67857239 2.81304199 -71.87734985 2.80615234 C-70.19242782 2.7921269 -68.50748708 2.78022492 -66.82253647 2.77020454 C-64.15840535 2.753775 -61.4944142 2.7305394 -58.83035278 2.70530701 C-51.25725272 2.63456296 -43.68409779 2.57426202 -36.11083984 2.52319336 C-31.47664746 2.49146759 -26.8426201 2.45021736 -22.20856094 2.40299797 C-20.44069497 2.38694938 -18.67279104 2.37464108 -16.90487289 2.36609077 C-14.43885181 2.35398603 -11.97322199 2.3298602 -9.50732422 2.30297852 C-8.77273987 2.30238937 -8.03815552 2.30180023 -7.28131104 2.30119324 C-3.18911261 2.36204538 -3.18911261 2.36204538 0 0 Z " fill="#FCF7EE" transform="translate(154,169)"/>
<path d="M0 0 C13.14788674 2.40201777 26.05698174 5.68585406 39 9 C39 9.33 39 9.66 39 10 C20.52 10 2.04 10 -17 10 C-17 9.67 -17 9.34 -17 9 C-8.42 8.67 0.16 8.34 9 8 C9.33 7.34 9.66 6.68 10 6 C9.67 5.01 9.34 4.02 9 3 C6.36 3 3.72 3 1 3 C0.67 2.01 0.34 1.02 0 0 Z " fill="#FCF5F5" transform="translate(97,182)"/>
<path d="M0 0 C1.65 0 3.3 0 5 0 C6.231394 3.69418201 5.64432764 6.2056261 5 10 C5.7425 10.144375 6.485 10.28875 7.25 10.4375 C9.52027739 10.90187492 11.75759479 11.41863569 14 12 C13 15 13 15 10.375 16.75 C6.33150624 18.24759028 4.13005295 18.16888291 0 17 C-2.78536336 14.66388879 -2.97227503 13.24952477 -3.375 9.625 C-2.97567245 5.76483364 -1.94699617 3.32611845 0 0 Z " fill="#090909" transform="translate(180,276)"/>
<path d="M0 0 C8.814299 2.25396835 17.39630728 5.0624369 26 8 C26 8.33 26 8.66 26 9 C14.12 9.33 2.24 9.66 -10 10 C-9.34 8.68 -8.68 7.36 -8 6 C-5.69 6 -3.38 6 -1 6 C-1.66 4.68 -2.32 3.36 -3 2 C-2.01 2 -1.02 2 0 2 C0 1.34 0 0.68 0 0 Z " fill="#FBF8F7" transform="translate(112,218)"/>
<path d="M0 0 C2 2 2 2 2 5 C0.68 5 -0.64 5 -2 5 C-2 4.34 -2 3.68 -2 3 C-3.32 3 -4.64 3 -6 3 C-4.78934835 5.42130331 -3.78126593 5.84658222 -1.4375 7.125 C-0.303125 7.74375 0.83125 8.3625 2 9 C1.6875 11.375 1.6875 11.375 1 14 C-2.69486103 16.46324069 -4.63293092 16.38991688 -9 16 C-10.9375 14.6875 -10.9375 14.6875 -12 13 C-12 12.01 -12 11.02 -12 10 C-10.35 10 -8.7 10 -7 10 C-7 10.66 -7 11.32 -7 12 C-5.68 12 -4.36 12 -3 12 C-3.90263862 9.66123576 -3.90263862 9.66123576 -7 8.6875 C-10 7 -10 7 -10.875 4.3125 C-10.91625 3.549375 -10.9575 2.78625 -11 2 C-6.99613851 -0.9440158 -4.7914976 -1.38421042 0 0 Z " fill="#151515" transform="translate(193,316)"/>
<path d="M0 0 C1.11375 0.1546875 1.11375 0.1546875 2.25 0.3125 C1.5384375 1.364375 1.5384375 1.364375 0.8125 2.4375 C-0.83739857 5.47331337 -1.35368464 7.90418786 -1.75 11.3125 C0.70224694 11.20636164 0.70224694 11.20636164 3.25 10.3125 C4.62466625 7.83613988 4.62466625 7.83613988 5.25 5.3125 C6.24 5.3125 7.23 5.3125 8.25 5.3125 C8.58 4.6525 8.91 3.9925 9.25 3.3125 C9.57470459 7.45248349 9.6804413 9.65249001 7.375 13.1875 C4.58514673 15.97735327 3.80639135 16.27203517 -0.1875 16.5625 C-3.75 16.3125 -3.75 16.3125 -5.6875 15.3125 C-7.41492409 12.06087819 -7.36951042 8.85059287 -6.75 5.3125 C-4.808159 1.86033822 -4.00118449 0.45468006 0 0 Z " fill="#141414" transform="translate(224.75,315.6875)"/>
<path d="M0 0 C4.95 0 9.9 0 15 0 C15 1.32 15 2.64 15 4 C13.02 4 11.04 4 9 4 C8.93941406 4.64066406 8.87882812 5.28132813 8.81640625 5.94140625 C8.32790588 10.98423313 7.76220714 15.9912102 7 21 C5.35 21 3.7 21 2 21 C2.66 15.39 3.32 9.78 4 4 C2.68 4 1.36 4 0 4 C0 2.68 0 1.36 0 0 Z " fill="#0D0D0D" transform="translate(114,311)"/>
<path d="M0 0 C3.79379058 1.49041773 5.68343758 3.69062512 8 7 C8 7.66 8 8.32 8 9 C-2.62371926 9.69159836 -2.62371926 9.69159836 -6.5 7 C-10.97263754 3.98231684 -15.80441227 4.23086466 -21 5 C-25.9615742 7.34547144 -28.16697825 10.38322381 -31 15 C-31.33 15 -31.66 15 -32 15 C-32 13.02 -32 11.04 -32 9 C-31.01 9 -30.02 9 -29 9 C-29 8.01 -29 7.02 -29 6 C-28.01 6 -27.02 6 -26 6 C-26 5.34 -26 4.68 -26 4 C-12.344024 1.51522843 -12.344024 1.51522843 -6 3 C-5.195625 3.185625 -4.39125 3.37125 -3.5625 3.5625 C-2.7890625 3.7790625 -2.7890625 3.7790625 -2 4 C-2 3.34 -2 2.68 -2 2 C-1.34 2 -0.68 2 0 2 C0 1.34 0 0.68 0 0 Z " fill="#CF161E" transform="translate(239,241)"/>
<path d="M0 0 C1.32 0 2.64 0 4 0 C4 1.32 4 2.64 4 4 C4.99 4 5.98 4 7 4 C7 5.32 7 6.64 7 8 C5.68 8 4.36 8 3 8 C2.67 10.97 2.34 13.94 2 17 C2.99 17 3.98 17 5 17 C5 18.32 5 19.64 5 21 C2.125 21.1875 2.125 21.1875 -1 21 C-3.49118953 17.2632157 -3.2065226 15.25548181 -3.125 10.8125 C-3.10695312 9.54019531 -3.08890625 8.26789063 -3.0703125 6.95703125 C-3.04710937 5.98121094 -3.02390625 5.00539063 -3 4 C-2.34 3.67 -1.68 3.34 -1 3 C-0.67 2.01 -0.34 1.02 0 0 Z " fill="#0C0C0C" transform="translate(253,311)"/>
<path d="M0 0 C1.5625 1 1.5625 1 3 3 C2.87315487 6.99562159 2.5395545 9.83096526 0.875 13.4375 C-1.87165659 15.72638049 -4.51147877 15.73671538 -8 16 C-7.67 14.68 -7.34 13.36 -7 12 C-7.99 11.34 -8.98 10.68 -10 10 C-9.25 5.25 -9.25 5.25 -7 3 C-5.7625 3.0309375 -5.7625 3.0309375 -4.5 3.0625 C-3.675 3.041875 -2.85 3.02125 -2 3 C-1.34 2.01 -0.68 1.02 0 0 Z " fill="#171717" transform="translate(213,316)"/>
<path d="M0 0 C3.08315385 -0.08733513 6.16598827 -0.14050127 9.25 -0.1875 C10.12269531 -0.21263672 10.99539062 -0.23777344 11.89453125 -0.26367188 C18.41598332 -0.33834499 18.41598332 -0.33834499 21.609375 1.51171875 C22.06828125 2.00285156 22.5271875 2.49398437 23 3 C22.67 3.33 22.34 3.66 22 4 C22.99 4.66 23.98 5.32 25 6 C23.68 6.33 22.36 6.66 21 7 C21 7.66 21 8.32 21 9 C15.79714932 8.42460686 11.76043964 6.70581107 7.125 4.4375 C6.09246094 3.9434668 6.09246094 3.9434668 5.0390625 3.43945312 C3.3561267 2.63304639 1.67759707 1.81745506 0 1 C0 0.67 0 0.34 0 0 Z " fill="#DD060A" transform="translate(117,245)"/>
<path d="M0 0 C2.875 -0.125 2.875 -0.125 6 0 C6.66 0.66 7.32 1.32 8 2 C10.5 2.33333333 10.5 2.33333333 13 2 C13.66 1.34 14.32 0.68 15 0 C15.99 0.33 16.98 0.66 18 1 C16.02 1.99 16.02 1.99 14 3 C14.33 3.66 14.66 4.32 15 5 C15.99 5.33 16.98 5.66 18 6 C15.32444477 8.67555523 13.91609626 9.00799083 10.0625 9.375 C6.31764062 9.20731973 3.84843955 8.5894905 1 6 C0.1875 2.8125 0.1875 2.8125 0 0 Z " fill="#131313" transform="translate(176,296)"/>
<path d="M0 0 C0.33 0.66 0.66 1.32 1 2 C3.71446979 2.31241455 6.33909361 2.51336592 9.0625 2.625 C10.20041992 2.68300781 10.20041992 2.68300781 11.36132812 2.7421875 C13.24047195 2.83673562 15.12020336 2.91946756 17 3 C17 3.33 17 3.66 17 4 C14.69 4 12.38 4 10 4 C10.33 5.32 10.66 6.64 11 8 C6.97967476 9.06420374 4.05844983 8.76095934 0 8 C-1.66627298 7.96377667 -3.33405374 7.95100158 -5 8 C-4.01 6.68 -3.02 5.36 -2 4 C-2.78375 4.185625 -3.5675 4.37125 -4.375 4.5625 C-7 5 -7 5 -9 4 C-9 3.34 -9 2.68 -9 2 C-9.66 1.67 -10.32 1.34 -11 1 C-7.27569643 0.30710631 -3.78916254 -0.11144596 0 0 Z " fill="#E70102" transform="translate(117,193)"/>
<path d="M0 0 C6.82423338 1.23416987 13.39367844 2.8915995 20 5 C20 5.33 20 5.66 20 6 C13.48585955 6.19330304 6.97142764 6.37078012 0.45654297 6.53710938 C-1.76100488 6.5956113 -3.97845922 6.65777441 -6.19580078 6.72363281 C-9.37775653 6.8175126 -12.55981315 6.89834326 -15.7421875 6.9765625 C-17.23599442 7.02485703 -17.23599442 7.02485703 -18.75997925 7.0741272 C-20.14118454 7.10438492 -20.14118454 7.10438492 -21.55029297 7.13525391 C-22.3630368 7.15746002 -23.17578064 7.17966614 -24.01315308 7.20254517 C-26 7 -26 7 -28 5 C-18.1 4.34 -8.2 3.68 2 3 C1.34 2.01 0.68 1.02 0 0 Z " fill="#F3B6B4" transform="translate(118,204)"/>
<path d="M0 0 C1.65 0 3.3 0 5 0 C5.33 0.66 5.66 1.32 6 2 C7.32 1.67 8.64 1.34 10 1 C10 2.32 10 3.64 10 5 C9.21625 5.12375 8.4325 5.2475 7.625 5.375 C4.80898488 6.7292184 4.80898488 6.7292184 4.22265625 9.359375 C3.73064551 11.90202904 3.31769004 14.43002979 3 17 C1.35 17 -0.3 17 -2 17 C-1.34 11.39 -0.68 5.78 0 0 Z " fill="#0E0E0E" transform="translate(238,315)"/>
<path d="M0 0 C1.65 0 3.3 0 5 0 C5.33 0.66 5.66 1.32 6 2 C7.32 1.67 8.64 1.34 10 1 C10 2.32 10 3.64 10 5 C9.21625 5.12375 8.4325 5.2475 7.625 5.375 C4.80898488 6.7292184 4.80898488 6.7292184 4.22265625 9.359375 C3.73064551 11.90202904 3.31769004 14.43002979 3 17 C1.35 17 -0.3 17 -2 17 C-1.34 11.39 -0.68 5.78 0 0 Z " fill="#0C0C0C" transform="translate(131,315)"/>
<path d="M0 0 C1.65 0 3.3 0 5 0 C5 28.05 5 56.1 5 85 C0 84 0 84 -2 82 C-0.02 82 1.96 82 4 82 C4 55.27 4 28.54 4 1 C2.68 0.67 1.36 0.34 0 0 Z " fill="#D50B10" transform="translate(148,176)"/>
<path d="M0 0 C1.65 0 3.3 0 5 0 C4.69188262 2.45895618 4.37871012 4.91708307 4.0625 7.375 C3.93198242 8.42300781 3.93198242 8.42300781 3.79882812 9.4921875 C3.11328125 14.7734375 3.11328125 14.7734375 2 17 C0.68 17 -0.64 17 -2 17 C-2 16.34 -2 15.68 -2 15 C-3.65 14.67 -5.3 14.34 -7 14 C-6.195625 13.46375 -5.39125 12.9275 -4.5625 12.375 C-1.53491576 9.56894631 -1.27489191 8.03174806 -1 4 C-1.99 4 -2.98 4 -4 4 C-3.67 3.34 -3.34 2.68 -3 2 C-2.01 2.33 -1.02 2.66 0 3 C0 2.01 0 1.02 0 0 Z " fill="#080808" transform="translate(155,315)"/>
<path d="M0 0 C0.99 0.495 0.99 0.495 2 1 C3.6027098 1.11856636 5.21005353 1.17706124 6.81689453 1.20532227 C7.81778107 1.22526749 8.8186676 1.24521271 9.84988403 1.26576233 C11.47493362 1.29083107 11.47493362 1.29083107 13.1328125 1.31640625 C14.23978485 1.33718735 15.3467572 1.35796844 16.48727417 1.37937927 C20.03311799 1.44490991 23.57903754 1.50377614 27.125 1.5625 C29.5247475 1.60568187 31.92448727 1.64929605 34.32421875 1.69335938 C40.21606513 1.80059488 46.10798731 1.90235472 52 2 C52 2.33 52 2.66 52 3 C42.43 3.33 32.86 3.66 23 4 C22.67 4.99 22.34 5.98 22 7 C20.02 7.33 18.04 7.66 16 8 C16 7.34 16 6.68 16 6 C16.66 5.67 17.32 5.34 18 5 C17.01 4.67 16.02 4.34 15 4 C15 4.66 15 5.32 15 6 C13.68 5.67 12.36 5.34 11 5 C11 4.34 11 3.68 11 3 C10.29875 3.165 9.5975 3.33 8.875 3.5 C5.86111806 4.02415338 3.05286375 4.07099683 0 4 C0 2.68 0 1.36 0 0 Z " fill="#FCF0EC" transform="translate(234,248)"/>
<path d="M0 0 C0.66 0.66 1.32 1.32 2 2 C1.80274374 5.09034807 1.48118402 7.27822397 -0.25 9.875 C-2.66101557 11.42493858 -4.19261443 11.43190547 -7 11 C-9 8 -9 8 -8.8125 5.5 C-7.23362962 0.64193729 -5.08206836 -0.65154723 0 0 Z " fill="#EBEBEB" transform="translate(259,277)"/>
<path d="M0 0 C2.5 0.25 2.5 0.25 4.5 2.25 C4.3125 5.75 4.3125 5.75 3.5 9.25 C0.5 11.25 0.5 11.25 -2.125 10.9375 C-4.5 10.25 -4.5 10.25 -5.5 9.25 C-4.70183486 0.47018349 -4.70183486 0.47018349 0 0 Z " fill="#EEEEEE" transform="translate(189.5,276.75)"/>
<path d="M0 0 C0.75 2.1875 0.75 2.1875 1 5 C-0.625 7.8125 -0.625 7.8125 -3 10 C-5.6875 10.375 -5.6875 10.375 -8 10 C-9 9 -9 9 -9.3125 5.625 C-9 2 -9 2 -7.3125 0 C-4.44360465 -1.2406034 -2.94358324 -0.89942821 0 0 Z " fill="#EBEBEB" transform="translate(140,278)"/>
<path d="M0 0 C0.33 0.33 0.66 0.66 1 1 C0.90968426 3.35694954 0.75311872 5.71153582 0.5625 8.0625 C0.46066406 9.35285156 0.35882813 10.64320313 0.25390625 11.97265625 C0.12822266 13.47119141 0.12822266 13.47119141 0 15 C-1.65 15 -3.3 15 -5 15 C-5 11.04 -5 7.08 -5 3 C-5.66 2.67 -6.32 2.34 -7 2 C-7 1.34 -7 0.68 -7 0 C-4.31633121 -1.3418344 -2.84719317 -0.73004953 0 0 Z " fill="#090909" transform="translate(178,317)"/>
<path d="M0 0 C1.74991334 -0.02715383 3.49994945 -0.04646551 5.25 -0.0625 C6.71179688 -0.07990234 6.71179688 -0.07990234 8.203125 -0.09765625 C11 0 11 0 13.234375 0.56640625 C15.09090023 1.22439177 15.09090023 1.22439177 17 0 C19.01927511 0.60578253 21.02253397 1.26919734 23 2 C23 2.66 23 3.32 23 4 C13.595 4.495 13.595 4.495 4 5 C5.32 5.99 6.64 6.98 8 8 C3.545 7.01 3.545 7.01 -1 6 C-0.67 4.02 -0.34 2.04 0 0 Z " fill="#F9BDBB" transform="translate(115,241)"/>
<path d="M0 0 C10.23 0 20.46 0 31 0 C31 0.33 31 0.66 31 1 C23.41 1 15.82 1 8 1 C8 1.66 8 2.32 8 3 C11.3 3.33 14.6 3.66 18 4 C17.01 4.495 17.01 4.495 16 5 C16 5.66 16 6.32 16 7 C16.721875 7.12375 17.44375 7.2475 18.1875 7.375 C21.00213749 8.000475 23.4199262 8.7099631 26 10 C26.33 10.99 26.66 11.98 27 13 C21.07570956 11.26460179 15.6641012 8.55448391 10.125 5.875 C9.15046875 5.40707031 8.1759375 4.93914062 7.171875 4.45703125 C4.77970501 3.30785155 2.38915684 2.15542757 0 1 C0 0.67 0 0.34 0 0 Z " fill="#BD1D22" transform="translate(103,227)"/>
<path d="M0 0 C3.3125 -0.25 3.3125 -0.25 7 0 C8.9375 2 8.9375 2 10 4 C9.67 4.66 9.34 5.32 9 6 C8.01 6 7.02 6 6 6 C5.855625 6.804375 5.71125 7.60875 5.5625 8.4375 C5 11 5 11 4 12 C2.33382885 12.04063832 0.66611905 12.042721 -1 12 C-1.36923077 6.58461538 -1.36923077 6.58461538 0.5 3.625 C0.995 3.08875 1.49 2.5525 2 2 C1.34 1.34 0.68 0.68 0 0 Z " fill="#262626" transform="translate(224,315)"/>
<path d="M0 0 C3.38721604 1.12907201 4.51444325 2.51444325 7 5 C9.13309192 6.23512079 9.13309192 6.23512079 11 7 C11 7.66 11 8.32 11 9 C9.68 9 8.36 9 7 9 C7 8.34 7 7.68 7 7 C5.35 7 3.7 7 2 7 C2.474375 7.78375 2.94875 8.5675 3.4375 9.375 C4.33898023 10.88948678 5.21179485 12.4235897 6 14 C5.34 14.66 4.68 15.32 4 16 C3.34 15.67 2.68 15.34 2 15 C1.34 15.66 0.68 16.32 0 17 C-1.86128204 11.41615387 -1.13770571 5.68852856 0 0 Z " fill="#EFEFEF" transform="translate(179,319)"/>
<path d="M0 0 C2.94831641 2.77488604 5.1937951 5.55119004 7.3125 9 C7.84488281 9.845625 8.37726563 10.69125 8.92578125 11.5625 C10 14 10 14 9 18 C-2.55 18 -14.1 18 -26 18 C-26 17.67 -26 17.34 -26 17 C-14.78 17 -3.56 17 8 17 C8 15.68 8 14.36 8 13 C6.68 12.67 5.36 12.34 4 12 C3.87625 11.360625 3.7525 10.72125 3.625 10.0625 C3.41875 9.381875 3.2125 8.70125 3 8 C2.34 7.67 1.68 7.34 1 7 C0.59270772 4.67843403 0.25561323 2.3431213 0 0 Z " fill="#FEC9C7" transform="translate(216,203)"/>
<path d="M0 0 C6.04083695 -0.20324311 11.53229599 -0.08834666 17.390625 1.4296875 C22.1741074 2.47517916 27.07473128 2.89719236 31.9375 3.4375 C32.948125 3.623125 33.95875 3.80875 35 4 C35.495 4.99 35.495 4.99 36 6 C37.32 6 38.64 6 40 6 C40 7.65 40 9.3 40 11 C39.3915625 10.67386719 38.783125 10.34773437 38.15625 10.01171875 C25.82621896 3.86483563 12.59076903 2.61583172 -1 2 C-0.67 1.34 -0.34 0.68 0 0 Z " fill="#FCDDDA" transform="translate(168,173)"/>
<path d="M0 0 C6.14517198 3.14404148 8.5906944 7.61427409 11 14 C11 14.99 11 15.98 11 17 C7.21874975 15.73958325 6.98677673 14.31129455 5 11 C4.01 10.67 3.02 10.34 2 10 C-0.4294516 6.3558226 -0.16179575 4.28758728 0 0 Z " fill="#D61419" transform="translate(216,196)"/>
<path d="M0 0 C0.99 0.33 1.98 0.66 3 1 C2.67 1.66 2.34 2.32 2 3 C1.87951849 5.06223352 1.82259073 7.12828629 1.79467773 9.19384766 C1.77473251 10.49504547 1.75478729 11.79624329 1.73423767 13.13687134 C1.71725327 14.5626005 1.70037447 15.98833093 1.68359375 17.4140625 C1.66302479 18.86852613 1.64202834 20.32298377 1.62062073 21.7774353 C1.56539396 25.60786088 1.5159874 29.43834045 1.46777344 33.26885986 C1.4175628 37.1766847 1.36187446 41.084431 1.30664062 44.9921875 C1.19905167 52.66139185 1.09760838 60.33066145 1 68 C0.67 68 0.34 68 0 68 C0 45.56 0 23.12 0 0 Z " fill="#FEFAFD" transform="translate(165,188)"/>
<path d="M0 0 C0.99 0.13277344 1.98 0.26554688 3 0.40234375 C3.63663574 0.48750244 4.27327148 0.57266113 4.92919922 0.66040039 C6.31109792 0.8453161 7.69293389 1.03070116 9.07470703 1.21655273 C12.67165042 1.6982786 16.26918129 2.15304806 19.875 2.5625 C23 3 23 3 24 4 C26.69235776 4.23678716 29.36498156 4.42198025 32.0625 4.5625 C33.20041992 4.62727539 33.20041992 4.62727539 34.36132812 4.69335938 C36.24065438 4.79973633 38.12030244 4.90039934 40 5 C40 5.66 40 6.32 40 7 C40.99 7.33 41.98 7.66 43 8 C28.94189896 6.70397116 14.97501295 5.00043932 1 3 C0.67 2.01 0.34 1.02 0 0 Z " fill="#FACECD" transform="translate(233,218)"/>
<path d="M0 0 C13.14788674 2.40201777 26.05698174 5.68585406 39 9 C39 9.33 39 9.66 39 10 C34.71 10 30.42 10 26 10 C26 9.34 26 8.68 26 8 C24.68 8 23.36 8 22 8 C22 7.34 22 6.68 22 6 C20.453125 6.061875 20.453125 6.061875 18.875 6.125 C15.05826917 6.00187965 12.57033471 5.23868755 9 4 C6.33602009 3.56003236 3.68793476 3.27806222 1 3 C0.67 2.01 0.34 1.02 0 0 Z " fill="#FDD9D2" transform="translate(97,182)"/>
<path d="M0 0 C1.5169043 -0.06864258 1.5169043 -0.06864258 3.06445312 -0.13867188 C5.89464918 -0.18169534 8.41717328 -0.14935162 11.1875 0.4375 C15.1875 4.73851302 15.1875 4.73851302 15.1875 8.4375 C13.8675 8.1075 12.5475 7.7775 11.1875 7.4375 C11.1875 5.7875 11.1875 4.1375 11.1875 2.4375 C9.8675 2.7675 8.5475 3.0975 7.1875 3.4375 C7.1875 2.7775 7.1875 2.1175 7.1875 1.4375 C4.56211716 1.57803872 1.93732573 1.72468947 -0.6875 1.875 C-1.80705078 1.93397461 -1.80705078 1.93397461 -2.94921875 1.99414062 C-7.01236864 2.15323624 -7.01236864 2.15323624 -10.8125 3.4375 C-10.8125 10.3675 -10.8125 17.2975 -10.8125 24.4375 C-11.1425 24.4375 -11.4725 24.4375 -11.8125 24.4375 C-11.84137236 20.62501574 -11.85925492 16.8125593 -11.875 13 C-11.88337891 11.91138672 -11.89175781 10.82277344 -11.90039062 9.70117188 C-11.90361328 8.66669922 -11.90683594 7.63222656 -11.91015625 6.56640625 C-11.91539307 5.60806885 -11.92062988 4.64973145 -11.92602539 3.66235352 C-11.64846286 -1.77727518 -4.177284 0.07633348 0 0 Z " fill="#FED3D1" transform="translate(200.8125,194.5625)"/>
<path d="M0 0 C0.69480469 -0.01160156 1.38960937 -0.02320313 2.10546875 -0.03515625 C6.84604855 -0.00837331 10.06424747 0.9690996 14.125 3.375 C14.125 3.705 14.125 4.035 14.125 4.375 C8.5 4.625 8.5 4.625 5.125 2.375 C1.91180898 2.635529 -0.17141104 3.52611151 -3.0625 5 C-3.990625 5.45375 -4.91875 5.9075 -5.875 6.375 C-6.535 6.045 -7.195 5.715 -7.875 5.375 C-7.545 4.715 -7.215 4.055 -6.875 3.375 C-8.525 3.375 -10.175 3.375 -11.875 3.375 C-8.29258764 -0.13316547 -4.75358851 -0.07849963 0 0 Z " fill="#D80E10" transform="translate(223.875,235.625)"/>
<path d="M0 0 C0.99 0.33 1.98 0.66 3 1 C3 1.66 3 2.32 3 3 C3.66 3 4.32 3 5 3 C5 3.66 5 4.32 5 5 C6.98 4.67 8.96 4.34 11 4 C11 7.96 11 11.92 11 16 C11.66 16 12.32 16 13 16 C12.67 17.32 12.34 18.64 12 20 C3.55353075 6.3667426 3.55353075 6.3667426 0 0 Z " fill="#F7EEE5" transform="translate(219,196)"/>
<path d="M0 0 C3.63 0 7.26 0 11 0 C10.01 0.33 9.02 0.66 8 1 C8 1.66 8 2.32 8 3 C8.77085938 2.91621094 9.54171875 2.83242187 10.3359375 2.74609375 C11.84027344 2.59333984 11.84027344 2.59333984 13.375 2.4375 C14.87160156 2.28087891 14.87160156 2.28087891 16.3984375 2.12109375 C19 2 19 2 21 3 C21 3.66 21 4.32 21 5 C21.99 5 22.98 5 24 5 C24 5.66 24 6.32 24 7 C18.8678684 7.25903503 14.53055374 6.31287876 9.625 5 C8.88894531 4.80921875 8.15289062 4.6184375 7.39453125 4.421875 C5.59466378 3.95437696 3.79708452 3.47808424 2 3 C2 2.34 2 1.68 2 1 C1.34 0.67 0.68 0.34 0 0 Z " fill="#D11B25" transform="translate(80,176)"/>
<path d="M0 0 C4.95 0 9.9 0 15 0 C15 1.32 15 2.64 15 4 C13.72125 4.144375 12.4425 4.28875 11.125 4.4375 C8.74307106 4.70642746 7.15547309 4.92226346 5 6 C5 5.34 5 4.68 5 4 C3.35 4 1.7 4 0 4 C0 2.68 0 1.36 0 0 Z " fill="#020202" transform="translate(114,311)"/>
<path d="M0 0 C0.99 0.33 1.98 0.66 3 1 C3 2.32 3 3.64 3 5 C4.32 5.33 5.64 5.66 7 6 C6.67 6.99 6.34 7.98 6 9 C4.83597656 8.45859375 4.83597656 8.45859375 3.6484375 7.90625 C-4.83059715 4.26370528 -11.82138058 3.38075281 -21 4 C-21 3.34 -21 2.68 -21 2 C-20.15236084 2.01571045 -20.15236084 2.01571045 -19.28759766 2.03173828 C-16.73344347 2.07324788 -14.17936018 2.0993096 -11.625 2.125 C-10.29082031 2.15013672 -10.29082031 2.15013672 -8.9296875 2.17578125 C-8.07890625 2.18222656 -7.228125 2.18867188 -6.3515625 2.1953125 C-5.56604004 2.20578613 -4.78051758 2.21625977 -3.97119141 2.22705078 C-1.765535 2.17990127 -1.765535 2.17990127 0 0 Z " fill="#D30E15" transform="translate(236,229)"/>
<path d="M0 0 C2.57826671 4.12522674 2.31805379 6.54443033 3 12 C-8.55 12 -20.1 12 -32 12 C-32.33 10.68 -32.66 9.36 -33 8 C-32.01 8 -31.02 8 -30 8 C-30 8.99 -30 9.98 -30 11 C-19.44 11 -8.88 11 2 11 C2 10.01 2 9.02 2 8 C1.01 8 0.02 8 -1 8 C-0.67 5.36 -0.34 2.72 0 0 Z " fill="#C61922" transform="translate(283,238)"/>
<path d="M0 0 C2.50549588 0.23474053 4.62910634 -0.12969495 7.04296875 -0.80859375 C6.29296875 3.94140625 6.29296875 3.94140625 4.04296875 6.19140625 C0.41462925 6.7961295 -0.96976535 6.18405965 -4.20703125 4.31640625 C-6.95703125 2.19140625 -6.95703125 2.19140625 -7.95703125 0.19140625 C-5.17033888 -1.20193993 -2.98683081 -0.42979897 0 0 Z " fill="#E9E9E9" transform="translate(184.95703125,292.80859375)"/>
<path d="M0 0 C1.32 0.33 2.64 0.66 4 1 C3.67 4.63 3.34 8.26 3 12 C2.484375 11.2575 1.96875 10.515 1.4375 9.75 C-1.47534392 6.46371455 -4.12433906 5.01236241 -8 3 C-8 2.34 -8 1.68 -8 1 C-6.68 1 -5.36 1 -4 1 C-4 1.66 -4 2.32 -4 3 C-2.68 3 -1.36 3 0 3 C0 2.01 0 1.02 0 0 Z " fill="#E7E7E7" transform="translate(195,318)"/>
<path d="M0 0 C4.31931387 0.61611835 8.25208775 1.64238578 12.375 3.0625 C13.43460938 3.42472656 14.49421875 3.78695312 15.5859375 4.16015625 C16.38257813 4.43730469 17.17921875 4.71445313 18 5 C18 5.33 18 5.66 18 6 C7.44 6 -3.12 6 -14 6 C-14 5.67 -14 5.34 -14 5 C-7.73 4.67 -1.46 4.34 5 4 C4.01 3.34 3.02 2.68 2 2 C1.34 1.34 0.68 0.68 0 0 Z " fill="#FEDBD8" transform="translate(120,221)"/>
<path d="M0 0 C0 0.66 0 1.32 0 2 C-0.99 2 -1.98 2 -3 2 C-2.67 2.99 -2.34 3.98 -2 5 C-2.66 5 -3.32 5 -4 5 C-4 5.66 -4 6.32 -4 7 C-2.35 7 -0.7 7 1 7 C0.01 7.33 -0.98 7.66 -2 8 C-2 8.99 -2 9.98 -2 11 C-2.99 11 -3.98 11 -5 11 C-5.33 12.32 -5.66 13.64 -6 15 C-6 12.69 -6 10.38 -6 8 C-8.475 9.485 -8.475 9.485 -11 11 C-9.7672897 6.34309441 -5.30909278 0 0 0 Z " fill="#D11314" transform="translate(212,239)"/>
<path d="M0 0 C14.85 0 29.7 0 45 0 C45 0.33 45 0.66 45 1 C33.12 1 21.24 1 9 1 C9 1.99 9 2.98 9 4 C6.03 3.01 3.06 2.02 0 1 C0 0.67 0 0.34 0 0 Z " fill="#C6141A" transform="translate(93,210)"/>
<path d="M0 0 C1.60332791 -0.08121924 3.20784026 -0.13929134 4.8125 -0.1875 C6.15248047 -0.23970703 6.15248047 -0.23970703 7.51953125 -0.29296875 C10.46382547 0.05478254 11.08255443 0.8542871 13 3 C15.16299211 2.77242269 15.16299211 2.77242269 17 2 C17 2.66 17 3.32 17 4 C18.65 4 20.3 4 22 4 C22 4.66 22 5.32 22 6 C23.32 6.33 24.64 6.66 26 7 C23.25392431 8.37303785 22.00062035 7.65296609 19.0625 6.85546875 C18.08539063 6.59056641 17.10828125 6.32566406 16.1015625 6.05273438 C15.07804687 5.76720703 14.05453125 5.48167969 13 5.1875 C11.97648437 4.91357422 10.95296875 4.63964844 9.8984375 4.35742188 C2.2549619 2.2549619 2.2549619 2.2549619 0 0 Z " fill="#CD1B25" transform="translate(84,193)"/>
<path d="M0 0 C-3.30906937 2.00408427 -5.55366024 2.12119276 -9.375 1.875 C-14.46987266 1.79359058 -17.14595081 2.42795441 -21 6 C-22.39355764 7.95851344 -23.74282547 9.95127113 -25 12 C-25.33 12 -25.66 12 -26 12 C-26 10.02 -26 8.04 -26 6 C-25.01 6 -24.02 6 -23 6 C-23 5.01 -23 4.02 -23 3 C-22.01 3 -21.02 3 -20 3 C-20 2.34 -20 1.68 -20 1 C-6.3667426 -1.48063781 -6.3667426 -1.48063781 0 0 Z " fill="#CC191F" transform="translate(233,244)"/>
<path d="M0 0 C0.33 0.66 0.66 1.32 1 2 C1.99 2.33 2.98 2.66 4 3 C4 3.66 4 4.32 4 5 C-1.61 5 -7.22 5 -13 5 C-9.25515055 1.25515055 -5.29414139 -0.46713012 0 0 Z " fill="#E80202" transform="translate(231,237)"/>
<path d="M0 0 C0.33 0 0.66 0 1 0 C1.33292585 4.24480464 1.43885872 6.35542625 -1 9.9375 C-1.66 10.618125 -2.32 11.29875 -3 12 C-4.9375 11.625 -4.9375 11.625 -7 11 C-7.33 10.34 -7.66 9.68 -8 9 C-7.0409375 8.1028125 -7.0409375 8.1028125 -6.0625 7.1875 C-3.79689611 5.09189663 -3.79689611 5.09189663 -3 2 C-2.01 2 -1.02 2 0 2 C0 1.34 0 0.68 0 0 Z " fill="#0D0D0D" transform="translate(233,319)"/>
<path d="M0 0 C1.15837573 3.47512718 0.77265943 5.13670286 0.0625 8.6875 C-0.13214844 9.68136719 -0.32679688 10.67523438 -0.52734375 11.69921875 C-0.68332031 12.45847656 -0.83929688 13.21773438 -1 14 C-2.33333333 14 -3.66666667 14 -5 14 C-4.93983797 12.2282281 -4.85100672 10.45741321 -4.75 8.6875 C-4.70359375 7.70136719 -4.6571875 6.71523438 -4.609375 5.69921875 C-4 3 -4 3 -1.953125 1.14453125 C-1.30859375 0.76683594 -0.6640625 0.38914062 0 0 Z " fill="#E9E9E9" transform="translate(163,315)"/>
<path d="M0 0 C1.65 0 3.3 0 5 0 C5.875 2.0625 5.875 2.0625 6 5 C4.29119016 7.61729102 2.27837029 9.86325813 0 12 C-0.33 12 -0.66 12 -1 12 C-0.67 8.04 -0.34 4.08 0 0 Z " fill="#E5E5E5" transform="translate(79,265)"/>
<path d="M0 0 C0.66 0 1.32 0 2 0 C2 4.33333333 2 8.66666667 2 13 C1.236875 12.79375 0.47375 12.5875 -0.3125 12.375 C-3.21885944 11.66608797 -3.21885944 11.66608797 -6 14 C-6.66 13.34 -7.32 12.68 -8 12 C-7.01 11.67 -6.02 11.34 -5 11 C-2.99149811 7.46503667 -1.45061611 3.79391905 0 0 Z " fill="#EAEAEA" transform="translate(217,319)"/>
<path d="M0 0 C1.43472656 -0.02126953 1.43472656 -0.02126953 2.8984375 -0.04296875 C5.65510017 0.19004428 7.27447395 0.77829836 9.625 2.1875 C6.6787951 3.66060245 4.08342685 3.08820239 0.8125 2.9375 C-3.99460763 2.76126125 -3.99460763 2.76126125 -8.41015625 4.296875 C-9.91940207 5.77552347 -9.91940207 5.77552347 -11.375 8.1875 C-12.365 7.8575 -13.355 7.5275 -14.375 7.1875 C-13.25220538 6.20580524 -12.12668527 5.22722702 -11 4.25 C-10.06027344 3.43208984 -10.06027344 3.43208984 -9.1015625 2.59765625 C-6.02255838 0.08290402 -3.91430815 0.02623531 0 0 Z " fill="#FEE0DD" transform="translate(223.375,244.8125)"/>
<path d="M0 0 C2.64 0 5.28 0 8 0 C7.67 0.66 7.34 1.32 7 2 C5.68 2 4.36 2 3 2 C3 2.66 3 3.32 3 4 C4.98 4 6.96 4 9 4 C9 3.34 9 2.68 9 2 C10.32 2 11.64 2 13 2 C12.67 2.99 12.34 3.98 12 5 C9.87506859 5.02693575 7.75004088 5.04636628 5.625 5.0625 C4.44164062 5.07410156 3.25828125 5.08570313 2.0390625 5.09765625 C-1 5 -1 5 -3 4 C-3 3.34 -3 2.68 -3 2 C-2.01 2 -1.02 2 0 2 C0 1.34 0 0.68 0 0 Z " fill="#ED0104" transform="translate(219,226)"/>
<path d="M0 0 C2.625 -0.1875 2.625 -0.1875 5 0 C5.625 2.375 5.625 2.375 6 5 C4 7 4 7 1.375 7.125 C0.59125 7.08375 -0.1925 7.0425 -1 7 C-1.625 5.1875 -1.625 5.1875 -2 3 C-1.34 2.01 -0.68 1.02 0 0 Z " fill="#E7E7E7" transform="translate(205,320)"/>
<path d="M0 0 C3.76854223 1.25618074 4.07958456 2.66014706 6 6 C6.66 6.33 7.32 6.66 8 7 C7.67 5.35 7.34 3.7 7 2 C9.54131358 4.30283254 11.07110295 6.67313793 12.6875 9.6875 C13.12449219 10.49574219 13.56148437 11.30398437 14.01171875 12.13671875 C14.33785156 12.75160156 14.66398438 13.36648437 15 14 C14.01 14 13.02 14 12 14 C11.34 12.35 10.68 10.7 10 9 C9.01 9 8.02 9 7 9 C6.67 9.66 6.34 10.32 6 11 C4.02 7.37 2.04 3.74 0 0 Z " fill="#C81F23" transform="translate(219,206)"/>
<path d="M0 0 C1.60517097 0.08733576 3.20921662 0.19552224 4.8125 0.3125 C6.15248047 0.39951172 6.15248047 0.39951172 7.51953125 0.48828125 C10.38677887 1.07979218 11.29306943 1.65297046 13 4 C13.94193717 6.63440181 14.41457053 9.2529848 15 12 C14.01 11.34 13.02 10.68 12 10 C12 8.68 12 7.36 12 6 C7.68903892 4.25231308 3.57548468 2.86563224 -1 2 C-0.67 1.34 -0.34 0.68 0 0 Z " fill="#D3101E" transform="translate(268,225)"/>
<path d="M0 0 C7.01694482 1.25397873 14.01556007 2.57584088 21 4 C19.03561669 5.46800688 17.53263574 6.03217444 15.07617188 5.88378906 C12.78558931 5.52249521 10.52135643 5.09207827 8.25 4.625 C7.45722656 4.47289062 6.66445312 4.32078125 5.84765625 4.1640625 C3.8961215 3.78786303 1.94771562 3.39549684 0 3 C0 2.01 0 1.02 0 0 Z " fill="#FEE1DD" transform="translate(75,177)"/>
<path d="M0 0 C1.2065625 0.0309375 1.2065625 0.0309375 2.4375 0.0625 C3.0625 2.4375 3.0625 2.4375 3.4375 5.0625 C1.4375 7.0625 1.4375 7.0625 -1.1875 7.1875 C-1.97125 7.14625 -2.755 7.105 -3.5625 7.0625 C-3.60504356 5.06295254 -3.60330783 3.06208364 -3.5625 1.0625 C-2.5625 0.0625 -2.5625 0.0625 0 0 Z " fill="#F0F0F0" transform="translate(150.5625,319.9375)"/>
<path d="M0 0 C4.05281712 1.22527029 7.44360764 2.69880494 11 5 C10.67 5.66 10.34 6.32 10 7 C9.13375 6.835 8.2675 6.67 7.375 6.5 C4.18774801 6.02781452 1.21514973 5.92344882 -2 6 C-2 5.34 -2 4.68 -2 4 C-1.01 3.67 -0.02 3.34 1 3 C0.67 2.01 0.34 1.02 0 0 Z " fill="#FDEFEE" transform="translate(120,236)"/>
<path d="M0 0 C4.455 0.99 4.455 0.99 9 2 C8.33035714 9.09821429 8.33035714 9.09821429 5 12 C4.72285156 11.30132812 4.44570313 10.60265625 4.16015625 9.8828125 C3.79792969 8.97273437 3.43570312 8.06265625 3.0625 7.125 C2.70285156 6.22007812 2.34320313 5.31515625 1.97265625 4.3828125 C1.05098738 2.03862333 1.05098738 2.03862333 0 0 Z " fill="#FAE8E0" transform="translate(278,226)"/>
<path d="M0 0 C7.73300788 -0.61864063 14.74204379 1.39018373 22 4 C22.66 4.66 23.32 5.32 24 6 C18.3444819 5.39496146 12.99786009 4.37814297 7.5 2.9375 C6.77296875 2.75123047 6.0459375 2.56496094 5.296875 2.37304688 C3.53012276 1.91973545 1.76489225 1.4604998 0 1 C0 0.67 0 0.34 0 0 Z " fill="#CB191F" transform="translate(104,183)"/>
<path d="M0 0 C1.2065625 0.0309375 1.2065625 0.0309375 2.4375 0.0625 C2.48004356 2.06204746 2.47830783 4.06291636 2.4375 6.0625 C1.4375 7.0625 1.4375 7.0625 -1.125 7.125 C-2.3315625 7.0940625 -2.3315625 7.0940625 -3.5625 7.0625 C-3.60504356 5.06295254 -3.60330783 3.06208364 -3.5625 1.0625 C-2.5625 0.0625 -2.5625 0.0625 0 0 Z " fill="#F2F2F2" transform="translate(226.5625,319.9375)"/>
<path d="M0 0 C0.33 0 0.66 0 1 0 C1.09978121 3.49234244 0.77842938 6.59437148 0 10 C3.26954202 9.43628586 4.82575883 8.50037734 7 6 C6.67 7.98 6.34 9.96 6 12 C3.36 12 0.72 12 -2 12 C-2.17835515 7.45194365 -1.99785435 4.1205746 0 0 Z " fill="#BD1F27" transform="translate(200,250)"/>
<path d="M0 0 C0 0.66 0 1.32 0 2 C-2.69770258 3.34885129 -4.65273375 3.01578483 -7.6640625 2.87890625 C-8.78554687 2.83056641 -9.90703125 2.78222656 -11.0625 2.73242188 C-12.8259375 2.64831055 -12.8259375 2.64831055 -14.625 2.5625 C-16.40003906 2.48418945 -16.40003906 2.48418945 -18.2109375 2.40429688 C-21.14087561 2.27433994 -24.07049673 2.13936472 -27 2 C-27 1.67 -27 1.34 -27 1 C-23.25006257 0.83190552 -19.50004074 0.66577241 -15.75 0.5 C-14.15478516 0.42845703 -14.15478516 0.42845703 -12.52734375 0.35546875 C-11.50253906 0.31035156 -10.47773437 0.26523438 -9.421875 0.21875 C-8.47924805 0.17685547 -7.53662109 0.13496094 -6.56542969 0.09179688 C-4.37813904 0.01353067 -2.18869047 0 0 0 Z " fill="#D20B12" transform="translate(138,227)"/>
<path d="M0 0 C0 0.33 0 0.66 0 1 C-0.763125 1.020625 -1.52625 1.04125 -2.3125 1.0625 C-5.41389118 1.79660949 -5.41389118 1.79660949 -6.8125 5.5625 C-7.204375 6.696875 -7.59625 7.83125 -8 9 C-10.31 8.67 -12.62 8.34 -15 8 C-14.67 7.34 -14.34 6.68 -14 6 C-13.01 6 -12.02 6 -11 6 C-10.731875 5.38125 -10.46375 4.7625 -10.1875 4.125 C-7.6842135 -0.35456531 -4.6732398 -0.20769955 0 0 Z " fill="#F7F8F2" transform="translate(223,247)"/>
<path d="M0 0 C0.87527344 0.00773438 1.75054687 0.01546875 2.65234375 0.0234375 C3.53019531 0.01570312 4.40804687 0.00796875 5.3125 0 C6.43978516 0.19722656 6.43978516 0.19722656 7.58984375 0.3984375 C8.24984375 1.3884375 8.90984375 2.3784375 9.58984375 3.3984375 C4.63984375 3.3984375 -0.31015625 3.3984375 -5.41015625 3.3984375 C-2.41015625 0.3984375 -2.41015625 0.3984375 0 0 Z " fill="#F8D6DF" transform="translate(221.41015625,231.6015625)"/>
<path d="M0 0 C3.93846154 4.30769231 3.93846154 4.30769231 4.25 7.8125 C4.1675 8.534375 4.085 9.25625 4 10 C2.35 10 0.7 10 -1 10 C-0.67 6.7 -0.34 3.4 0 0 Z " fill="#111111" transform="translate(174,322)"/>
<path d="M0 0 C1.46067199 0.45082469 2.91848032 0.91093537 4.375 1.375 C5.18710938 1.63023437 5.99921875 1.88546875 6.8359375 2.1484375 C9 3 9 3 11 5 C2.42857143 6.42857143 2.42857143 6.42857143 -1 4 C-0.67 2.68 -0.34 1.36 0 0 Z " fill="#FAEEE7" transform="translate(123,249)"/>
<path d="M0 0 C8.91 0 17.82 0 27 0 C27 0.33 27 0.66 27 1 C25.02966797 1.09087891 25.02966797 1.09087891 23.01953125 1.18359375 C21.28384459 1.26803256 19.54816802 1.35267888 17.8125 1.4375 C16.51602539 1.49647461 16.51602539 1.49647461 15.19335938 1.55664062 C11.04085878 1.76347016 7.05462138 2.00103531 3 3 C3 2.34 3 1.68 3 1 C2.01 0.67 1.02 0.34 0 0 Z " fill="#FEF5ED" transform="translate(167,262)"/>
<path d="M0 0 C0.33 0 0.66 0 1 0 C1 1.65 1 3.3 1 5 C1.66 5 2.32 5 3 5 C3 5.99 3 6.98 3 8 C0.37403939 9.84526962 -1.95127546 10.98375849 -5 12 C-5 12.66 -5 13.32 -5 14 C-6.32 13.34 -7.64 12.68 -9 12 C-8.05125 11.566875 -7.1025 11.13375 -6.125 10.6875 C-2.79958063 9.20697799 -2.79958063 9.20697799 -1 6 C-0.60986284 4.0103005 -0.26797351 2.00980131 0 0 Z " fill="#DCDCDC" transform="translate(234,320)"/>
<path d="M0 0 C3.96 0 7.92 0 12 0 C10.68 0.33 9.36 0.66 8 1 C7.67 1.66 7.34 2.32 7 3 C5.15234375 3.6328125 5.15234375 3.6328125 2.9375 4.125 C2.20402344 4.29257812 1.47054687 4.46015625 0.71484375 4.6328125 C0.14894531 4.75398438 -0.41695312 4.87515625 -1 5 C-0.67 3.35 -0.34 1.7 0 0 Z " fill="#272727" transform="translate(200,315)"/>
<path d="M0 0 C6.90767437 0.36823999 12.6381142 1.23918163 19 4 C19 4.66 19 5.32 19 6 C16.39392608 5.38221953 13.79034303 4.75612789 11.1875 4.125 C10.44951172 3.95097656 9.71152344 3.77695313 8.95117188 3.59765625 C5.50282963 2.75507489 2.98071638 1.98714425 0 0 Z " fill="#D12B30" transform="translate(114,202)"/>
<path d="M0 0 C6.81987029 0.43300764 11.91643021 1.90787824 18 5 C17.67 5.66 17.34 6.32 17 7 C15.68 7 14.36 7 13 7 C13 6.01 13 5.02 13 4 C8.71 3.01 4.42 2.02 0 1 C0 0.67 0 0.34 0 0 Z " fill="#C9212B" transform="translate(188,177)"/>
<path d="M0 0 C-1.01320312 0.48919922 -1.01320312 0.48919922 -2.046875 0.98828125 C-3.38492188 1.64376953 -3.38492188 1.64376953 -4.75 2.3125 C-5.63171875 2.74175781 -6.5134375 3.17101562 -7.421875 3.61328125 C-9.81600215 4.90103146 -11.87776958 6.30915754 -14 8 C-14 6.68 -14 5.36 -14 4 C-13.01 4 -12.02 4 -11 4 C-11 3.34 -11 2.68 -11 2 C-10.01 2 -9.02 2 -8 2 C-8 1.34 -8 0.68 -8 0 C-4.90645403 -0.99435406 -3.09720845 -0.87840996 0 0 Z " fill="#C7181B" transform="translate(215,234)"/>
<path d="M0 0 C2.64 0.66 5.28 1.32 8 2 C8 2.66 8 3.32 8 4 C4.37 4 0.74 4 -3 4 C-3 3.34 -3 2.68 -3 2 C-2.01 2 -1.02 2 0 2 C0 1.34 0 0.68 0 0 Z " fill="#FFF1E3" transform="translate(112,218)"/>
<path d="M0 0 C0.99 0.33 1.98 0.66 3 1 C3 1.66 3 2.32 3 3 C3.66 3 4.32 3 5 3 C7.95303159 6.07115285 8.52651586 8.8333396 9 13 C4.76568424 9.39299028 2.5307901 4.85413839 0 0 Z " fill="#FDDED9" transform="translate(219,196)"/>
<path d="M0 0 C2.5 0.25 2.5 0.25 4.5 2.25 C4.125 4.375 4.125 4.375 3.5 6.25 C3.5 5.26 3.5 4.27 3.5 3.25 C2.51 3.25 1.52 3.25 0.5 3.25 C0.17 4.24 -0.16 5.23 -0.5 6.25 C-0.83 5.59 -1.16 4.93 -1.5 4.25 C-2.49 3.59 -3.48 2.93 -4.5 2.25 C-2.5 0.25 -2.5 0.25 0 0 Z " fill="#DFDFDF" transform="translate(256.5,276.75)"/>
<path d="M0 0 C2.97 0 5.94 0 9 0 C9 0.66 9 1.32 9 2 C9.66 2.33 10.32 2.66 11 3 C7.37 3 3.74 3 0 3 C0 2.01 0 1.02 0 0 Z " fill="#FEEFE5" transform="translate(167,188)"/>
<path d="M0 0 C1.98 0 3.96 0 6 0 C6 3.63 6 7.26 6 11 C5.67 11 5.34 11 5 11 C4.67 8.03 4.34 5.06 4 2 C3.01 2 2.02 2 1 2 C1 3.65 1 5.3 1 7 C0.67 7 0.34 7 0 7 C0 4.69 0 2.38 0 0 Z " fill="#C1141D" transform="translate(158,165)"/>
<path d="M0 0 C0.33 0.99 0.66 1.98 1 3 C1.66 3 2.32 3 3 3 C3.33 3.99 3.66 4.98 4 6 C3.34 6 2.68 6 2 6 C2 6.66 2 7.32 2 8 C0.68 7.34 -0.64 6.68 -2 6 C-1.125 1.125 -1.125 1.125 0 0 Z " fill="#212121" transform="translate(184,316)"/>
<path d="M0 0 C-0.33 0.99 -0.66 1.98 -1 3 C-4.3 3.66 -7.6 4.32 -11 5 C-11.33 4.34 -11.66 3.68 -12 3 C-10.56445975 2.49440092 -9.1264798 1.9957251 -7.6875 1.5 C-6.88699219 1.2215625 -6.08648437 0.943125 -5.26171875 0.65625 C-3 0 -3 0 0 0 Z " fill="#DA070A" transform="translate(128,180)"/>
<path d="M0 0 C2.475 0.495 2.475 0.495 5 1 C5 1.66 5 2.32 5 3 C5.99 3 6.98 3 8 3 C8 3.66 8 4.32 8 5 C2.25 5.125 2.25 5.125 0 4 C0 2.68 0 1.36 0 0 Z " fill="#DB1017" transform="translate(96,178)"/>
<path d="M0 0 C1.65 0 3.3 0 5 0 C6.125 3.75 6.125 3.75 5 6 C3.0625 5.25 3.0625 5.25 1 4 C0.25 1.875 0.25 1.875 0 0 Z " fill="#222222" transform="translate(181,326)"/>
<path d="M0 0 C0.33 1.32 0.66 2.64 1 4 C-2.3 3.01 -5.6 2.02 -9 1 C-4.82091936 -1.08954032 -4.19589427 -1.16552619 0 0 Z " fill="#D92025" transform="translate(121,217)"/>
<path d="M0 0 C1.65 0 3.3 0 5 0 C4.67 1.98 4.34 3.96 4 6 C2.35 5.67 0.7 5.34 -1 5 C-1.33 4.01 -1.66 3.02 -2 2 C-1.34 2 -0.68 2 0 2 C0 1.34 0 0.68 0 0 Z " fill="#060506" transform="translate(136,272)"/>
<path d="M0 0 C2.475 0.495 2.475 0.495 5 1 C4.67 2.65 4.34 4.3 4 6 C4.99 5.67 5.98 5.34 7 5 C7 5.99 7 6.98 7 8 C4.69 7.67 2.38 7.34 0 7 C1 5 1 5 3 2 C2.01 1.67 1.02 1.34 0 1 C0 0.67 0 0.34 0 0 Z " fill="#FADDDF" transform="translate(208,184)"/>
<path d="M0 0 C0.33 0 0.66 0 1 0 C1 2.31 1 4.62 1 7 C0.01 7.33 -0.98 7.66 -2 8 C-2 7.34 -2 6.68 -2 6 C-2.66 5.67 -3.32 5.34 -4 5 C-3.67 4.01 -3.34 3.02 -3 2 C-2.01 2 -1.02 2 0 2 C0 1.34 0 0.68 0 0 Z " fill="#050505" transform="translate(233,319)"/>
<path d="M0 0 C2.64 0 5.28 0 8 0 C7.67 1.32 7.34 2.64 7 4 C5 4 3 4 1 4 C0.67 2.68 0.34 1.36 0 0 Z " fill="#FDF3ED" transform="translate(198,262)"/>
<path d="M0 0 C5.94 2.475 5.94 2.475 12 5 C8.52176885 6.15941038 6.54104422 5.70820884 3 5 C3 4.34 3 3.68 3 3 C1.68 2.34 0.36 1.68 -1 1 C-0.67 0.67 -0.34 0.34 0 0 Z " fill="#FDDDD5" transform="translate(104,228)"/>
<path d="M0 0 C-0.66 1.32 -1.32 2.64 -2 4 C-4.31 4 -6.62 4 -9 4 C-9.33 3.34 -9.66 2.68 -10 2 C-6.49223216 0.39644899 -3.85645121 -0.22036864 0 0 Z " fill="#020202" transform="translate(213,316)"/>
<path d="M0 0 C1.15941038 3.47823115 0.70820884 5.45895578 0 9 C-0.66 8.01 -1.32 7.02 -2 6 C-2.99 6.495 -2.99 6.495 -4 7 C-3.6875 4.625 -3.6875 4.625 -3 2 C-2.01 1.34 -1.02 0.68 0 0 Z " fill="#DEDEDE" transform="translate(163,315)"/>
<path d="M0 0 C1.98 0 3.96 0 6 0 C6.33 0.66 6.66 1.32 7 2 C5.02 2.99 3.04 3.98 1 5 C0.67 3.35 0.34 1.7 0 0 Z " fill="#050505" transform="translate(176,296)"/>
<path d="M0 0 C0.94875 0.350625 1.8975 0.70125 2.875 1.0625 C2.875 2.3825 2.875 3.7025 2.875 5.0625 C2.111875 4.753125 1.34875 4.44375 0.5625 4.125 C-1.31289677 3.38356407 -3.21184652 2.70021783 -5.125 2.0625 C-5.125 1.4025 -5.125 0.7425 -5.125 0.0625 C-3.125 -0.9375 -3.125 -0.9375 0 0 Z " fill="#F3F3F3" transform="translate(182.125,292.9375)"/>
<path d="M0 0 C-3.4766338 2.14336161 -6.21229195 2.21277626 -10.25 2.125 C-11.32765625 2.10695312 -12.4053125 2.08890625 -13.515625 2.0703125 C-14.33546875 2.04710937 -15.1553125 2.02390625 -16 2 C-16 1.34 -16 0.68 -16 0 C-10.39436958 -0.82622671 -5.57710648 -1.06795656 0 0 Z " fill="#D5353D" transform="translate(233,244)"/>
<path d="M0 0 C1.32 0.66 2.64 1.32 4 2 C0.96160695 4.02559537 -1.4691418 5.11728545 -5 6 C-5.99 5.34 -6.98 4.68 -8 4 C-6.02 4 -4.04 4 -2 4 C-2 3.34 -2 2.68 -2 2 C-1.34 2 -0.68 2 0 2 C0 1.34 0 0.68 0 0 Z " fill="#CF1515" transform="translate(239,241)"/>
<path d="M0 0 C-0.33 2.97 -0.66 5.94 -1 9 C-1.33 9 -1.66 9 -2 9 C-2 7.02 -2 5.04 -2 3 C-2.66 3 -3.32 3 -4 3 C-4.33 3.66 -4.66 4.32 -5 5 C-5 4.34 -5 3.68 -5 3 C-5.66 2.67 -6.32 2.34 -7 2 C-2.25 0 -2.25 0 0 0 Z " fill="#C5C5C5" transform="translate(143,319)"/>
<path d="M0 0 C0.99 0.33 1.98 0.66 3 1 C1.515 2.485 1.515 2.485 0 4 C0.66 4 1.32 4 2 4 C1.67 4.66 1.34 5.32 1 6 C-1.97 5.505 -1.97 5.505 -5 5 C-3.35 3.35 -1.7 1.7 0 0 Z " fill="#020202" transform="translate(258,272)"/>
<path d="M0 0 C0.66 0.33 1.32 0.66 2 1 C1.34 2.32 0.68 3.64 0 5 C0.66 5.33 1.32 5.66 2 6 C1.01 7.485 1.01 7.485 0 9 C-0.99 8.67 -1.98 8.34 -3 8 C-2.45276317 4.62537285 -1.9451 2.91765 0 0 Z " fill="#FDD0CE" transform="translate(198,246)"/>
<path d="M0 0 C2.475 0.99 2.475 0.99 5 2 C5 2.33 5 2.66 5 3 C-0.28 3 -5.56 3 -11 3 C-11 2.67 -11 2.34 -11 2 C-10.28972656 1.93941406 -9.57945313 1.87882813 -8.84765625 1.81640625 C-7.46900391 1.69072266 -7.46900391 1.69072266 -6.0625 1.5625 C-5.14597656 1.48128906 -4.22945313 1.40007812 -3.28515625 1.31640625 C-1.03840268 1.23955024 -1.03840268 1.23955024 0 0 Z " fill="#FDE6DA" transform="translate(131,241)"/>
<path d="M0 0 C2.97 0.33 5.94 0.66 9 1 C9.33 1.99 9.66 2.98 10 4 C5.78087253 3.5205537 3.20336822 2.83374881 0 0 Z " fill="#CF2026" transform="translate(128,250)"/>
<path d="M0 0 C3.62528568 -0.20140476 5.86501708 0.14223235 9 2 C9 2.66 9 3.32 9 4 C6.36 3.67 3.72 3.34 1 3 C0.67 2.01 0.34 1.02 0 0 Z " fill="#F0FCFB" transform="translate(279,224)"/>
<path d="M0 0 C2.79872437 2.52788007 4.45773019 4.20411134 5 8 C3.68 8 2.36 8 1 8 C0 2.25 0 2.25 0 0 Z " fill="#FCD5CC" transform="translate(246,242)"/>
<path d="M0 0 C0.763125 0.20625 1.52625 0.4125 2.3125 0.625 C1.125 2.125 1.125 2.125 -0.6875 3.625 C-3.375 3.8125 -3.375 3.8125 -5.6875 3.625 C-5.6875 2.965 -5.6875 2.305 -5.6875 1.625 C-2.6875 -0.375 -2.6875 -0.375 0 0 Z " fill="#EA0205" transform="translate(213.6875,242.375)"/>
<path d="M0 0 C3.82097239 0.53069061 6.06171403 1.49701566 9 4 C3.375 4.25 3.375 4.25 0 2 C0 1.34 0 0.68 0 0 Z " fill="#D6232C" transform="translate(229,236)"/>
<path d="M0 0 C2.64 0 5.28 0 8 0 C8 0.99 8 1.98 8 3 C2.25 2.25 2.25 2.25 0 0 Z " fill="#D10506" transform="translate(125,203)"/>
<path d="M0 0 C2.5 1.3125 2.5 1.3125 5 3 C5 3.99 5 4.98 5 6 C3.35 5.67 1.7 5.34 0 5 C0 3.35 0 1.7 0 0 Z " fill="#E10506" transform="translate(216,196)"/>
<path d="M0 0 C0.66 0 1.32 0 2 0 C1.67 2.97 1.34 5.94 1 9 C0.01 8.34 -0.98 7.68 -2 7 C-1.34 4.69 -0.68 2.38 0 0 Z " fill="#D5D5D5" transform="translate(217,319)"/>
<path d="M0 0 C0 0.33 0 0.66 0 1 C-1.65 1 -3.3 1 -5 1 C-5 1.66 -5 2.32 -5 3 C-6.65 3.33 -8.3 3.66 -10 4 C-10 3.01 -10 2.02 -10 1 C-6.52674819 -0.1577506 -3.63932552 -0.06866652 0 0 Z " fill="#2F2E2E" transform="translate(141,271)"/>
<path d="M0 0 C1.32 0 2.64 0 4 0 C3.34 1.98 2.68 3.96 2 6 C1.67 5.34 1.34 4.68 1 4 C0.34 3.67 -0.32 3.34 -1 3 C-0.67 2.01 -0.34 1.02 0 0 Z " fill="#040404" transform="translate(240,265)"/>
<path d="M0 0 C2.64 0 5.28 0 8 0 C8 1.32 8 2.64 8 4 C2.25 2.25 2.25 2.25 0 0 Z " fill="#C21C2B" transform="translate(117,245)"/>
<path d="M0 0 C0.99 0.33 1.98 0.66 3 1 C3 1.66 3 2.32 3 3 C3.66 3.33 4.32 3.66 5 4 C4.01 4 3.02 4 2 4 C1.67 4.66 1.34 5.32 1 6 C0.34 4.35 -0.32 2.7 -1 1 C-0.67 0.67 -0.34 0.34 0 0 Z " fill="#E1060F" transform="translate(195,240)"/>
<path d="M0 0 C1.69141656 0.08963062 3.37959602 0.24577676 5.0625 0.4375 C6.44115234 0.59025391 6.44115234 0.59025391 7.84765625 0.74609375 C8.55792969 0.82988281 9.26820313 0.91367188 10 1 C10 1.33 10 1.66 10 2 C8.54364629 2.22174933 7.08477044 2.42698698 5.625 2.625 C4.81289063 2.74101562 4.00078125 2.85703125 3.1640625 2.9765625 C2.44992187 2.98429688 1.73578125 2.99203125 1 3 C0.34 2.34 -0.32 1.68 -1 1 C-0.67 0.67 -0.34 0.34 0 0 Z " fill="#C4161D" transform="translate(268,225)"/>
<path d="M0 0 C2.475 0.495 2.475 0.495 5 1 C4.67 2.32 4.34 3.64 4 5 C2.68 4.67 1.36 4.34 0 4 C0 2.68 0 1.36 0 0 Z " fill="#CA0E11" transform="translate(236,221)"/>
<path d="M0 0 C3.14737182 0.69941596 6.02588876 1.76078698 9 3 C9 3.33 9 3.66 9 4 C6.03 3.67 3.06 3.34 0 3 C0 2.01 0 1.02 0 0 Z " fill="#FFECEA" transform="translate(75,177)"/>
<path d="M0 0 C2 0.3125 2 0.3125 4 1 C4.33 1.66 4.66 2.32 5 3 C3.35 3.66 1.7 4.32 0 5 C-0.5625 3.0625 -0.5625 3.0625 -1 1 C-0.67 0.67 -0.34 0.34 0 0 Z " fill="#EFEFEF" transform="translate(242,290)"/>
<path d="M0 0 C0.5625 1.9375 0.5625 1.9375 1 4 C0 5 0 5 -3.5625 5.0625 C-4.696875 5.041875 -5.83125 5.02125 -7 5 C-6.67 4.01 -6.34 3.02 -6 2 C-6 2.66 -6 3.32 -6 4 C-4.05925139 3.72382467 -4.05925139 3.72382467 -2 3 C-1.34 2.01 -0.68 1.02 0 0 Z " fill="#C41012" transform="translate(206,256)"/>
<path d="M0 0 C0.33 0 0.66 0 1 0 C1 1.65 1 3.3 1 5 C-3.75 4.25 -3.75 4.25 -6 2 C-4.02 2 -2.04 2 0 2 C0 1.34 0 0.68 0 0 Z " fill="#BD2D2C" transform="translate(152,256)"/>
<path d="M0 0 C2.31 0 4.62 0 7 0 C7 1.32 7 2.64 7 4 C4.69 3.01 2.38 2.02 0 1 C0 0.67 0 0.34 0 0 Z " fill="#CD2328" transform="translate(235,234)"/>
<path d="M0 0 C1.32 0 2.64 0 4 0 C4 0.66 4 1.32 4 2 C5.32 2.33 6.64 2.66 8 3 C4.79937313 4.60031344 2.27728194 3.03173691 -1 2 C-0.67 1.34 -0.34 0.68 0 0 Z " fill="#D10F19" transform="translate(102,197)"/>
</svg>
